<svg width="104" height="104" viewBox="0 0 104 104" fill="none" xmlns="http://www.w3.org/2000/svg">
<circle cx="52" cy="52" r="52" fill="#009DDB"/>
<mask id="mask0_369_3389" style="mask-type:alpha" maskUnits="userSpaceOnUse" x="0" y="0" width="104" height="104">
<circle cx="52" cy="52" r="52" fill="#009DDB"/>
</mask>
<g mask="url(#mask0_369_3389)">
<path d="M4 123H72.6974L162 -33H93.3026L4 123Z" fill="url(#paint0_linear_369_3389)"/>
</g>
<g clip-path="url(#clip0_369_3389)">
<path d="M76.305 47.4979L71.384 46.9509C70.9212 45.1656 70.2119 43.4535 69.2767 41.864L72.3697 37.9974C72.4898 37.8473 72.5504 37.6582 72.5398 37.4662C72.5291 37.2743 72.4481 37.093 72.3121 36.9571L67.0429 31.6879C66.9071 31.5517 66.7258 31.4705 66.5338 31.4598C66.3418 31.4492 66.1526 31.5099 66.0026 31.6303L62.136 34.7233C60.5465 33.7881 58.8344 33.0788 57.0491 32.616L56.5021 27.695C56.4809 27.504 56.39 27.3274 56.2468 27.1991C56.1036 27.0709 55.9181 27 55.7258 27H48.2742C48.0819 27 47.8964 27.0709 47.7532 27.1991C47.61 27.3274 47.5191 27.504 47.4979 27.695L46.9509 32.616C45.1656 33.0788 43.4535 33.7881 41.864 34.7233L37.9974 31.6303C37.8474 31.5101 37.6582 31.4494 37.4662 31.4601C37.2743 31.4707 37.093 31.5518 36.9571 31.6879L31.6879 36.9571C31.5519 37.093 31.4709 37.2743 31.4602 37.4662C31.4496 37.6582 31.5102 37.8473 31.6303 37.9974L34.7233 41.864C33.7881 43.4535 33.0788 45.1656 32.616 46.9509L27.695 47.4979C27.504 47.5191 27.3274 47.61 27.1991 47.7532C27.0709 47.8964 27 48.0819 27 48.2742V55.7258C27 55.9181 27.0709 56.1036 27.1991 56.2468C27.3274 56.39 27.504 56.4809 27.695 56.5021L32.616 57.0491C33.0788 58.8344 33.7881 60.5465 34.7233 62.136L31.6303 66.0026C31.5102 66.1527 31.4496 66.3418 31.4602 66.5338C31.4709 66.7257 31.5519 66.907 31.6879 67.0429L36.9571 72.3121C37.093 72.4482 37.2743 72.5293 37.4662 72.5399C37.6582 72.5505 37.8474 72.4899 37.9974 72.3697L41.864 69.2767C43.4535 70.2119 45.1656 70.9212 46.9509 71.384L47.4979 76.3049C47.5191 76.496 47.6099 76.6726 47.7532 76.8009C47.8964 76.9291 48.0819 77 48.2742 77H55.7258C55.9181 77 56.1036 76.9291 56.2468 76.8009C56.39 76.6726 56.4809 76.4961 56.5021 76.305L57.0491 71.384C58.8344 70.9212 60.5465 70.2119 62.136 69.2767L66.0026 72.3697C66.1527 72.4899 66.3418 72.5505 66.5338 72.5399C66.7257 72.5293 66.907 72.4482 67.0429 72.3121L72.3121 67.0429C72.4481 66.907 72.5291 66.7257 72.5398 66.5338C72.5504 66.3418 72.4898 66.1527 72.3697 66.0026L69.2767 62.136C70.2119 60.5465 70.9212 58.8344 71.384 57.0491L76.3049 56.5021C76.496 56.4809 76.6726 56.3901 76.8009 56.2468C76.9291 56.1036 77 55.9181 77 55.7258V48.2742C77 48.0819 76.9291 47.8964 76.8009 47.7532C76.6726 47.61 76.4961 47.5191 76.305 47.4979ZM75.4375 55.0266L70.6688 55.5568C70.5078 55.5746 70.3563 55.6421 70.2353 55.7498C70.1144 55.8575 70.0299 56.0002 69.9935 56.158C69.536 58.1499 68.7484 60.0511 67.6635 61.7832C67.5775 61.9204 67.5364 62.0811 67.5457 62.2428C67.5551 62.4045 67.6145 62.5593 67.7158 62.6857L70.713 66.4325L66.4325 70.713L62.6857 67.7158C62.5593 67.6144 62.4045 67.555 62.2428 67.5456C62.0811 67.5362 61.9204 67.5774 61.7832 67.6635C60.0512 68.7484 58.1499 69.536 56.158 69.9935C56.0002 70.0299 55.8575 70.1143 55.7498 70.2353C55.6421 70.3563 55.5747 70.5077 55.5568 70.6687L55.0266 75.4375H48.9734L48.4432 70.6688C48.4254 70.5078 48.3579 70.3563 48.2502 70.2353C48.1425 70.1144 47.9998 70.0299 47.842 69.9935C45.8501 69.536 43.9489 68.7484 42.2168 67.6635C42.0796 67.5775 41.919 67.5363 41.7572 67.5456C41.5955 67.555 41.4407 67.6145 41.3143 67.7158L37.5675 70.713L33.287 66.4325L36.2842 62.6857C36.3855 62.5593 36.4449 62.4045 36.4543 62.2428C36.4636 62.0811 36.4225 61.9205 36.3365 61.7832C35.2516 60.0512 34.464 58.1499 34.0065 56.158C33.9701 56.0002 33.8857 55.8575 33.7647 55.7498C33.6437 55.6421 33.4922 55.5747 33.3313 55.5568L28.5625 55.0266V48.9734L33.3313 48.4432C33.4922 48.4254 33.6437 48.3579 33.7647 48.2502C33.8856 48.1425 33.9701 47.9998 34.0065 47.842C34.464 45.8501 35.2516 43.9489 36.3365 42.2168C36.4225 42.0796 36.4636 41.9189 36.4543 41.7572C36.4449 41.5955 36.3855 41.4407 36.2842 41.3143L33.287 37.5675L37.5675 33.287L41.3143 36.2842C41.4407 36.3856 41.5955 36.445 41.7572 36.4544C41.9189 36.4638 42.0796 36.4226 42.2168 36.3365C43.9488 35.2516 45.8501 34.464 47.842 34.0065C47.9998 33.9701 48.1425 33.8857 48.2502 33.7647C48.3579 33.6437 48.4253 33.4922 48.4432 33.3313L48.9734 28.5625H55.0266L55.5568 33.3313C55.5746 33.4922 55.6421 33.6437 55.7498 33.7647C55.8575 33.8856 56.0002 33.9701 56.158 34.0065C58.1499 34.464 60.0511 35.2516 61.7832 36.3365C61.9204 36.4225 62.081 36.4637 62.2428 36.4544C62.4045 36.445 62.5593 36.3855 62.6857 36.2842L66.4325 33.287L70.713 37.5675L67.7158 41.3143C67.6145 41.4407 67.5551 41.5955 67.5457 41.7572C67.5364 41.9189 67.5775 42.0795 67.6635 42.2168C68.7484 43.9488 69.536 45.8501 69.9935 47.842C70.0299 47.9998 70.1143 48.1425 70.2353 48.2502C70.3563 48.3579 70.5077 48.4253 70.6687 48.4432L75.4375 48.9734V55.0266Z" fill="white"/>
<path d="M52 35.5938C48.7552 35.5938 45.5832 36.556 42.8852 38.3587C40.1872 40.1614 38.0844 42.7237 36.8426 45.7216C35.6009 48.7194 35.276 52.0182 35.909 55.2007C36.542 58.3832 38.1046 61.3065 40.399 63.601C42.6935 65.8954 45.6168 67.458 48.7993 68.091C51.9818 68.724 55.2806 68.3991 58.2784 67.1574C61.2763 65.9156 63.8386 63.8128 65.6413 61.1148C67.444 58.4168 68.4063 55.2448 68.4063 52C68.4013 47.6503 66.6712 43.4802 63.5955 40.4045C60.5198 37.3288 56.3497 35.5987 52 35.5938ZM52 66.8437C49.0642 66.8437 46.1943 65.9732 43.7533 64.3421C41.3122 62.7111 39.4097 60.3928 38.2862 57.6805C37.1627 54.9681 36.8687 51.9835 37.4415 49.1041C38.0142 46.2247 39.428 43.5798 41.5039 41.5039C43.5798 39.4279 46.2247 38.0142 49.1041 37.4415C51.9835 36.8687 54.9681 37.1627 57.6805 38.2862C60.3928 39.4097 62.7111 41.3122 64.3421 43.7533C65.9732 46.1943 66.8438 49.0642 66.8438 52C66.8438 55.9368 65.2799 59.7124 62.4961 62.4961C59.7124 65.2799 55.9368 66.8437 52 66.8437Z" fill="white"/>
<path d="M52 38.7188C49.3732 38.7188 46.8054 39.4977 44.6213 40.957C42.4372 42.4164 40.735 44.4907 39.7297 46.9175C38.7245 49.3443 38.4615 52.0147 38.974 54.591C39.4864 57.1674 40.7513 59.5338 42.6087 61.3913C44.4662 63.2487 46.8327 64.5136 49.409 65.0261C51.9853 65.5385 54.6557 65.2755 57.0825 64.2703C59.5094 63.265 61.5836 61.5628 63.043 59.3787C64.5023 57.1946 65.2813 54.6268 65.2813 52C65.2773 48.4788 63.8767 45.103 61.3869 42.6131C58.897 40.1233 55.5212 38.7227 52 38.7188ZM52 63.7188C49.6823 63.7188 47.4166 63.0315 45.4894 61.7438C43.5623 60.4561 42.0603 58.6259 41.1733 56.4846C40.2863 54.3432 40.0543 51.987 40.5064 49.7138C40.9586 47.4406 42.0747 45.3525 43.7136 43.7136C45.3525 42.0747 47.4406 40.9586 49.7138 40.5064C51.987 40.0543 54.3433 40.2863 56.4846 41.1733C58.6259 42.0603 60.4561 43.5623 61.7438 45.4894C63.0315 47.4165 63.7188 49.6823 63.7188 52C63.7152 55.1069 62.4795 58.0856 60.2825 60.2825C58.0856 62.4794 55.1069 63.7152 52 63.7188Z" fill="white"/>
<path d="M52.7813 47.4492V46.1406C52.7813 45.9334 52.699 45.7347 52.5525 45.5882C52.406 45.4417 52.2072 45.3594 52 45.3594C51.7928 45.3594 51.5941 45.4417 51.4476 45.5882C51.3011 45.7347 51.2188 45.9334 51.2188 46.1406V47.4492C50.7619 47.6101 50.3663 47.9089 50.0864 48.3042C49.8066 48.6995 49.6562 49.1719 49.6562 49.6562C49.6562 50.1406 49.8066 50.613 50.0864 51.0083C50.3663 51.4036 50.7619 51.7024 51.2188 51.8633V57.8594C51.2188 58.0666 51.3011 58.2653 51.4476 58.4118C51.5941 58.5583 51.7928 58.6406 52 58.6406C52.2072 58.6406 52.406 58.5583 52.5525 58.4118C52.699 58.2653 52.7813 58.0666 52.7813 57.8594V51.8633C53.2381 51.7024 53.6338 51.4036 53.9137 51.0083C54.1935 50.613 54.3438 50.1406 54.3438 49.6562C54.3438 49.1719 54.1935 48.6995 53.9137 48.3042C53.6338 47.9089 53.2381 47.6101 52.7813 47.4492ZM52 50.4375C51.8455 50.4375 51.6945 50.3917 51.566 50.3058C51.4375 50.22 51.3374 50.098 51.2783 49.9552C51.2191 49.8125 51.2037 49.6554 51.2338 49.5038C51.2639 49.3523 51.3384 49.2131 51.4476 49.1038C51.5569 48.9946 51.6961 48.9202 51.8476 48.89C51.9992 48.8599 52.1563 48.8753 52.299 48.9345C52.4418 48.9936 52.5638 49.0937 52.6496 49.2222C52.7355 49.3507 52.7813 49.5017 52.7813 49.6562C52.781 49.8634 52.6986 50.0619 52.5522 50.2084C52.4057 50.3548 52.2072 50.4372 52 50.4375Z" fill="white"/>
<path d="M59.0313 52.1367V46.1406C59.0313 45.9334 58.949 45.7347 58.8025 45.5882C58.656 45.4417 58.4572 45.3594 58.25 45.3594C58.0428 45.3594 57.8441 45.4417 57.6976 45.5882C57.5511 45.7347 57.4688 45.9334 57.4688 46.1406V52.1367C57.0119 52.2976 56.6163 52.5964 56.3364 52.9917C56.0566 53.387 55.9062 53.8594 55.9062 54.3438C55.9062 54.8281 56.0566 55.3005 56.3364 55.6958C56.6163 56.0911 57.0119 56.3899 57.4688 56.5508V57.8594C57.4688 58.0666 57.5511 58.2653 57.6976 58.4118C57.8441 58.5583 58.0428 58.6406 58.25 58.6406C58.4572 58.6406 58.656 58.5583 58.8025 58.4118C58.949 58.2653 59.0313 58.0666 59.0313 57.8594V56.5508C59.4881 56.3899 59.8838 56.0911 60.1637 55.6958C60.4435 55.3005 60.5938 54.8281 60.5938 54.3438C60.5938 53.8594 60.4435 53.387 60.1637 52.9917C59.8838 52.5964 59.4881 52.2976 59.0313 52.1367ZM58.25 55.125C58.0955 55.125 57.9445 55.0792 57.816 54.9933C57.6875 54.9075 57.5874 54.7855 57.5283 54.6427C57.4691 54.5 57.4537 54.3429 57.4838 54.1913C57.5139 54.0398 57.5884 53.9006 57.6976 53.7913C57.8069 53.6821 57.9461 53.6077 58.0976 53.5775C58.2492 53.5474 58.4063 53.5628 58.549 53.622C58.6918 53.6811 58.8138 53.7812 58.8996 53.9097C58.9855 54.0382 59.0313 54.1892 59.0313 54.3438C59.031 54.5509 58.9486 54.7494 58.8022 54.8959C58.6557 55.0423 58.4572 55.1247 58.25 55.125Z" fill="white"/>
<path d="M46.5313 52.1367V46.1406C46.5313 45.9334 46.449 45.7347 46.3025 45.5882C46.156 45.4417 45.9572 45.3594 45.75 45.3594C45.5428 45.3594 45.3441 45.4417 45.1976 45.5882C45.0511 45.7347 44.9688 45.9334 44.9688 46.1406V52.1367C44.5119 52.2976 44.1163 52.5964 43.8364 52.9917C43.5566 53.387 43.4062 53.8594 43.4062 54.3438C43.4062 54.8281 43.5566 55.3005 43.8364 55.6958C44.1163 56.0911 44.5119 56.3899 44.9688 56.5508V57.8594C44.9688 58.0666 45.0511 58.2653 45.1976 58.4118C45.3441 58.5583 45.5428 58.6406 45.75 58.6406C45.9572 58.6406 46.156 58.5583 46.3025 58.4118C46.449 58.2653 46.5313 58.0666 46.5313 57.8594V56.5508C46.9881 56.3899 47.3838 56.0911 47.6637 55.6958C47.9435 55.3005 48.0938 54.8281 48.0938 54.3438C48.0938 53.8594 47.9435 53.387 47.6637 52.9917C47.3838 52.5964 46.9881 52.2976 46.5313 52.1367ZM45.75 55.125C45.5955 55.125 45.4445 55.0792 45.316 54.9933C45.1875 54.9075 45.0874 54.7855 45.0283 54.6427C44.9691 54.5 44.9537 54.3429 44.9838 54.1913C45.0139 54.0398 45.0884 53.9006 45.1976 53.7913C45.3069 53.6821 45.4461 53.6077 45.5976 53.5775C45.7492 53.5474 45.9063 53.5628 46.049 53.622C46.1918 53.6811 46.3138 53.7812 46.3996 53.9097C46.4855 54.0382 46.5313 54.1892 46.5313 54.3438C46.531 54.5509 46.4486 54.7494 46.3022 54.8959C46.1557 55.0423 45.9572 55.1247 45.75 55.125Z" fill="white"/>
<path d="M52 31.6875C52.4315 31.6875 52.7812 31.3377 52.7812 30.9062C52.7812 30.4748 52.4315 30.125 52 30.125C51.5685 30.125 51.2188 30.4748 51.2188 30.9062C51.2188 31.3377 51.5685 31.6875 52 31.6875Z" fill="white"/>
<path d="M52 73.875C52.4315 73.875 52.7812 73.5252 52.7812 73.0938C52.7812 72.6623 52.4315 72.3125 52 72.3125C51.5685 72.3125 51.2188 72.6623 51.2188 73.0938C51.2188 73.5252 51.5685 73.875 52 73.875Z" fill="white"/>
<path d="M73.0938 52.7812C73.5252 52.7812 73.875 52.4315 73.875 52C73.875 51.5685 73.5252 51.2188 73.0938 51.2188C72.6623 51.2188 72.3125 51.5685 72.3125 52C72.3125 52.4315 72.6623 52.7812 73.0938 52.7812Z" fill="white"/>
<path d="M30.9062 52.7812C31.3377 52.7812 31.6875 52.4315 31.6875 52C31.6875 51.5685 31.3377 51.2188 30.9062 51.2188C30.4748 51.2188 30.125 51.5685 30.125 52C30.125 52.4315 30.4748 52.7812 30.9062 52.7812Z" fill="white"/>
<path d="M66.916 66.1343C66.7352 66.1343 66.5601 66.197 66.4204 66.3116C66.2807 66.4263 66.185 66.5859 66.1498 66.7631C66.1145 66.9404 66.1418 67.1244 66.227 67.2838C66.3122 67.4432 66.4501 67.5682 66.6171 67.6373C66.7841 67.7065 66.9699 67.7156 67.1428 67.6631C67.3158 67.6107 67.4652 67.4998 67.5656 67.3495C67.666 67.1993 67.7112 67.0188 67.6935 66.8389C67.6758 66.6591 67.5962 66.4909 67.4684 66.3631C67.396 66.2904 67.3099 66.2328 67.215 66.1936C67.1202 66.1543 67.0186 66.1341 66.916 66.1343Z" fill="white"/>
<path d="M37.084 37.8657C37.2648 37.8657 37.4399 37.803 37.5796 37.6884C37.7193 37.5737 37.815 37.4141 37.8502 37.2369C37.8855 37.0596 37.8582 36.8756 37.773 36.7162C37.6878 36.5568 37.5499 36.4318 37.3829 36.3627C37.2159 36.2935 37.0301 36.2844 36.8572 36.3369C36.6842 36.3893 36.5348 36.5002 36.4344 36.6505C36.334 36.8007 36.2888 36.9812 36.3065 37.1611C36.3242 37.3409 36.4038 37.5091 36.5316 37.6369C36.604 37.7096 36.6902 37.7672 36.785 37.8065C36.8798 37.8457 36.9814 37.8659 37.084 37.8657Z" fill="white"/>
<path d="M66.916 37.8657C67.0968 37.8657 67.2719 37.8031 67.4116 37.6884C67.5514 37.5737 67.647 37.4142 67.6823 37.2369C67.7175 37.0596 67.6902 36.8756 67.605 36.7162C67.5198 36.5568 67.382 36.4319 67.215 36.3627C67.048 36.2935 66.8622 36.2844 66.6892 36.3369C66.5163 36.3893 66.3668 36.5002 66.2664 36.6504C66.166 36.8007 66.1208 36.9812 66.1385 37.1611C66.1563 37.3409 66.2358 37.5091 66.3636 37.6369C66.4361 37.7096 66.5222 37.7672 66.617 37.8064C66.7118 37.8457 66.8134 37.8659 66.916 37.8657Z" fill="white"/>
<path d="M37.084 66.1343C36.9032 66.1343 36.7281 66.197 36.5884 66.3116C36.4486 66.4263 36.353 66.5858 36.3177 66.7631C36.2825 66.9404 36.3098 67.1244 36.395 67.2838C36.4802 67.4432 36.618 67.5681 36.785 67.6373C36.952 67.7065 37.1378 67.7156 37.3108 67.6631C37.4837 67.6107 37.6332 67.4998 37.7336 67.3496C37.834 67.1993 37.8792 67.0188 37.8615 66.8389C37.8438 66.6591 37.7642 66.4909 37.6364 66.3631C37.5639 66.2904 37.4778 66.2328 37.383 66.1936C37.2882 66.1543 37.1866 66.1341 37.084 66.1343Z" fill="white"/>
</g>
<defs>
<linearGradient id="paint0_linear_369_3389" x1="83" y1="-0.5" x2="83" y2="123" gradientUnits="userSpaceOnUse">
<stop stop-color="#009DDB"/>
<stop offset="1" stop-color="#00527F"/>
</linearGradient>
<clipPath id="clip0_369_3389">
<rect width="50" height="50" fill="white" transform="translate(27 27)"/>
</clipPath>
</defs>
</svg>
