<svg width="104" height="104" viewBox="0 0 104 104" fill="none" xmlns="http://www.w3.org/2000/svg">
<circle cx="52" cy="52" r="52" fill="#009DDB"/>
<mask id="mask0_14_1155" style="mask-type:alpha" maskUnits="userSpaceOnUse" x="0" y="0" width="104" height="104">
<circle cx="52" cy="52" r="52" fill="#009DDB"/>
</mask>
<g mask="url(#mask0_14_1155)">
<path d="M4 123H72.6974L162 -33H93.3026L4 123Z" fill="url(#paint0_linear_14_1155)"/>
</g>
<path d="M27.0044 41.6458V41.8903C27.5036 44.4953 31.8462 67.6771 38.8074 72.3887C40.1733 73.3197 41.4167 74.2508 42.5941 75.1818C43.8376 76.1693 44.9585 77.1003 45.9476 77.9749C46.136 78.163 46.3244 78.2853 46.5034 78.4075C49.1126 80.6364 50.7894 82 52.4661 82H52.5886C54.2653 81.9342 55.942 80.6364 58.5513 78.4075C58.6737 78.2853 58.8621 78.163 59.0505 77.9749C60.0396 77.1097 61.1606 76.1787 62.404 75.1818C63.5814 74.2508 64.8249 73.3197 66.1908 72.3887C73.1426 67.6771 77.4945 44.4953 77.9938 41.8903V41.6458C78.1162 35.9467 76.4395 31.3574 72.8976 28.0094C67.2458 22.6771 58.5513 22 54.5196 22C53.587 22 52.8429 22.0658 52.532 22.0658C51.0437 21.9436 39.1842 21.3793 32.1664 28.0188C28.5681 31.3009 26.8254 35.8903 27.0138 41.6552L27.0044 41.6458ZM56.8086 75.3135C55.1978 76.6771 53.2103 78.3511 52.5226 78.5392C51.7785 78.3511 49.7909 76.6771 48.2366 75.3135C47.4265 74.627 46.6258 73.9498 45.6933 73.2069C45.5708 72.0313 45.5708 70.8464 45.5708 69.6144C45.5708 59.2038 49.2351 51.9436 52.5886 51.9436C55.942 51.9436 59.5403 59.1944 59.5403 69.6144C59.5403 70.8558 59.4744 72.0972 59.4179 73.2069C58.4288 73.9498 57.5528 74.6928 56.8086 75.3135Z" fill="white"/>
<defs>
<linearGradient id="paint0_linear_14_1155" x1="83" y1="-0.5" x2="83" y2="123" gradientUnits="userSpaceOnUse">
<stop stop-color="#009DDB"/>
<stop offset="1" stop-color="#00527F"/>
</linearGradient>
</defs>
</svg>
