<svg width="15" height="27" viewBox="0 0 15 27" fill="none" xmlns="http://www.w3.org/2000/svg">
<g clip-path="url(#clip0_205_3233)">
<path d="M4.11373 9.57782C4.11373 6.76652 3.74422 3.71725 6.00487 1.6129C8.24112 -0.467999 11.1929 0.0869664 13.9982 0.0200927C14.3503 0.0609117 14.4583 0.239821 14.4888 0.570715C14.5786 1.55471 14.5795 3.55832 14.4888 4.54232C14.4435 5.03823 14.1882 5.11465 13.7341 5.15547C12.847 5.23537 10.622 4.89232 10.0486 5.53153C9.91177 5.68352 9.72353 6.23327 9.72353 6.42434V9.51269H13.8657C14.1507 9.51269 14.3355 9.87745 14.3581 10.1276C14.4854 11.5102 14.2562 13.0839 14.3564 14.4874C14.3947 14.6472 14.1202 14.9738 13.9964 14.9738H9.72353V26.2528C9.72353 26.4491 9.27645 26.5933 9.1039 26.6106C8.07379 26.7149 5.83232 26.7088 4.79611 26.6124C4.58085 26.5924 4.11373 26.443 4.11373 26.1877V15.0389H0.624283C0.563279 15.0389 0.258257 14.8808 0.206839 14.8044C0.12579 14.6837 0.0804725 14.3814 0.0674001 14.2286C-0.0171346 13.2342 -0.0275924 11.2453 0.0708861 10.2613C0.0970308 9.99817 0.236469 9.57782 0.558921 9.57782H4.11461H4.11373Z" fill="white"/>
</g>
<defs>
<clipPath id="clip0_205_3233">
<rect width="14.5565" height="26.687" fill="white"/>
</clipPath>
</defs>
</svg>
