<svg width="104" height="104" viewBox="0 0 104 104" fill="none" xmlns="http://www.w3.org/2000/svg">
<circle cx="52" cy="52" r="52" fill="#009DDB"/>
<mask id="mask0_14_1156" style="mask-type:alpha" maskUnits="userSpaceOnUse" x="0" y="0" width="104" height="104">
<circle cx="52" cy="52" r="52" fill="#009DDB"/>
</mask>
<g mask="url(#mask0_14_1156)">
<path d="M4 123H72.6974L162 -33H93.3026L4 123Z" fill="url(#paint0_linear_14_1156)"/>
</g>
<mask id="mask1_14_1156" style="mask-type:alpha" maskUnits="userSpaceOnUse" x="0" y="0" width="104" height="104">
<circle cx="52" cy="52" r="52" fill="#009DDB"/>
</mask>
<g mask="url(#mask1_14_1156)">
<path d="M4 123H72.6974L162 -33H93.3026L4 123Z" fill="url(#paint1_linear_14_1156)"/>
</g>
<path d="M70.2475 49.7098C70.0133 49.2414 69.8353 48.6231 69.7042 48.0423C70.107 47.8456 70.4348 47.5271 70.4348 46.9931C70.4348 46.4592 70.6784 31.5177 70.6784 30.3749C70.6784 30.3749 70.6784 28.1641 68.374 27.5365C65.9758 26.8807 62.7815 26.0845 62.5285 26.047C62.285 26.0002 54.0882 25.9065 52.9735 25.9065C51.6526 25.9065 50.7627 26.1032 50.4629 26.7964C50.1632 27.4896 48.9548 31.0494 48.4864 31.218C48.0274 31.3772 45.7135 30.3093 45.7135 30.3093V29.1946C45.7135 29.1946 45.7135 29.1946 45.6854 29.1946C45.6854 29.0915 45.7135 28.4826 45.6854 28.2016C45.5168 28.0611 45.2639 28.0517 45.1702 28.0049C45.1702 28.0049 45.1421 25.8503 45.1046 25.1477L44.9922 24.9885L44.8236 24.7449C44.5332 24.1079 44.299 23.7519 44.299 23.7519C43.6807 23.1992 41.4606 23.0775 39.7463 23.0868C38.4255 23.0868 36.4583 23.2929 35.6807 23.6676C35.4466 23.78 34.8377 24.7262 34.8377 25.2601C34.8377 26.0283 34.7814 27.0868 34.8377 28.0142C34.8377 28.0142 34.1632 28.1173 34.1444 28.2109C34.0695 28.4826 34.1351 29.1102 34.1444 29.2133C34.107 29.2133 34.0882 29.2133 34.0882 29.2133V30.328H34.0695C34.0695 30.328 33.0391 30.506 33.0391 31.3679V78.1969C33.0391 79.7426 34.3037 80.9978 35.84 80.9978H67.9524C69.4981 80.9978 70.7533 79.7332 70.7533 78.1969V54.0751C70.7533 52.492 70.744 50.7683 70.2381 49.7566L70.2475 49.7098ZM66.9032 35.0025C66.9032 35.0025 64.7299 42.6465 64.5238 43.3679C64.3177 44.0892 63.8025 45.0634 62.2756 45.0634C60.4864 45.0634 60.1679 43.9299 60.1679 40.9229C60.1679 40.417 59.6995 39.5177 59.2311 39.0119C58.7627 38.506 52.8798 32.9135 52.3927 32.4264C51.6339 31.6676 52.3552 30.6372 52.4583 30.506C52.9548 29.8503 53.4887 29.3819 54.1819 29.2882C54.8751 29.1946 56.2428 29.588 56.2428 29.588C56.2428 29.588 63.8962 31.677 65.7978 32.1922C65.7978 32.1922 67.4091 32.6138 66.8939 34.9931L66.9032 35.0025Z" fill="white"/>
<path d="M67.9625 82H35.8501C33.7237 82 32 80.2763 32 78.1499V31.3208C32 30.5059 32.4684 29.9063 33.0492 29.5691V29.1756C33.0492 29.0913 33.0585 28.9977 33.0773 28.9133C33.0492 28.4824 33.0773 28.1358 33.1429 27.8829C33.2459 27.5176 33.4895 27.3021 33.7705 27.171C33.7705 26.7681 33.7705 26.3653 33.7892 25.9906C33.7892 25.7096 33.7986 25.4473 33.7986 25.2131C33.7986 24.3419 34.5667 22.993 35.2412 22.6745C36.281 22.1874 38.5105 22 39.7564 22C39.7845 22 39.822 22 39.8501 22C43.9532 22 44.7213 22.6745 45.0023 22.9368C45.0679 23.0023 45.1335 23.0679 45.1803 23.1429C45.2084 23.1803 45.4426 23.555 45.7424 24.192L45.8173 24.3044C45.8173 24.3044 45.8735 24.3888 45.9016 24.4262L45.9766 24.5293C46.0796 24.6885 46.1452 24.8665 46.1546 25.0632C46.1827 25.5222 46.2014 26.5527 46.2108 27.2553C46.2576 27.2927 46.3138 27.3302 46.3607 27.3677C46.5667 27.5457 46.6979 27.7892 46.726 28.0609C46.7541 28.3044 46.7447 28.6885 46.7354 28.9602C46.7447 29.0258 46.7541 29.0913 46.7541 29.1569V29.5972C47.2318 29.7939 47.6909 29.9719 48.0094 30.0656C48.356 29.3536 48.9087 27.9016 49.1429 27.274C49.3021 26.8618 49.4239 26.534 49.4988 26.3466C50.1546 24.8197 52.1218 24.8197 52.9649 24.8197C53.0492 24.8197 62.267 24.8946 62.7166 24.9789C63.0351 25.0351 66.3419 25.8595 68.6464 26.4965C71.082 27.1616 71.719 29.3068 71.719 30.356C71.719 31.0398 71.6347 36.5948 71.5597 41.0539C71.5129 43.9859 71.4754 46.7588 71.4754 46.9649C71.4754 47.5457 71.2693 48.0515 70.8852 48.445C70.9789 48.7541 71.0726 49.0164 71.1756 49.2225C71.7564 50.3841 71.8033 52.0047 71.8033 54.0094V78.1311C71.8033 80.2576 70.0796 81.9813 67.9532 81.9813L67.9625 82ZM34.0984 31.3864V78.1499C34.0984 79.1148 34.8852 79.9016 35.8501 79.9016H67.9625C68.9274 79.9016 69.7143 79.1148 69.7143 78.1499V54.0281C69.7143 52.7447 69.7143 50.993 69.3115 50.178C69.0679 49.6909 68.8525 49.0445 68.6838 48.267C68.5808 47.7892 68.815 47.3115 69.2553 47.096C69.3302 47.0585 69.377 47.0304 69.3864 47.0117C69.3864 47.0117 69.3864 47.0023 69.3864 46.9836C69.3864 46.7681 69.4239 44.5855 69.4707 41.0351C69.5363 36.5761 69.63 31.0398 69.63 30.3653C69.63 30.2248 69.555 28.9321 68.0937 28.5293C65.7799 27.8923 62.8384 27.171 62.3794 27.0679C61.5925 27.0304 54.1452 26.9368 52.9742 26.9368C51.5785 26.9368 51.4286 27.1897 51.4286 27.1897C51.3724 27.3302 51.2506 27.6487 51.1101 28.0234C49.9016 31.2459 49.5176 31.9485 48.8431 32.1827C48.5621 32.2857 47.9813 32.4824 45.2834 31.2365C44.9087 31.0679 44.6745 30.6932 44.6745 30.2904V29.4098C44.6557 29.3162 44.6464 29.2225 44.6464 29.1288C44.6464 29.0539 44.6464 28.9696 44.6464 28.8852C44.3279 28.6979 44.1311 28.3607 44.1218 27.9953C44.1218 27.9766 44.103 26.3185 44.0749 25.466L43.9625 25.2974C43.9251 25.2506 43.897 25.1944 43.8782 25.1382C43.7377 24.8384 43.6159 24.6042 43.541 24.4637C43.185 24.3138 42.0703 24.089 39.7658 24.0984C38.4824 24.0984 36.8899 24.3044 36.2623 24.5293C36.1218 24.7073 35.9251 25.082 35.897 25.2412C35.897 25.4848 35.897 25.7564 35.8876 26.0468C35.8782 26.6464 35.8595 27.3208 35.897 27.911C35.9251 28.3888 35.6253 28.8197 35.185 28.9696C35.185 28.9977 35.185 29.0258 35.185 29.0539C35.2037 29.2131 35.185 29.363 35.1382 29.5129V30.281C35.1382 30.815 34.7447 31.2553 34.2295 31.3208C34.1827 31.3302 34.1265 31.3583 34.089 31.377L34.0984 31.3864ZM62.2763 46.1124C59.1194 46.1124 59.1194 43.1148 59.1194 40.9227C59.1007 40.7447 58.829 40.1171 58.4637 39.733C58.2014 39.452 55.7283 37.082 54.089 35.5176C52.7026 34.1874 51.8407 33.363 51.644 33.1663C50.9321 32.4543 50.6511 31.1522 51.6159 29.8782C52.0843 29.26 52.8525 28.4169 54.0328 28.2576C54.904 28.1452 56.2623 28.5199 56.5246 28.5948C56.5246 28.5948 64.1686 30.6838 66.0703 31.1897C66.9602 31.4239 68.4965 32.5667 67.9157 35.2178C67.9157 35.2365 67.9063 35.2646 67.897 35.2834C67.897 35.2834 65.7237 42.918 65.5176 43.6487C65.0679 45.2318 63.9157 46.103 62.267 46.103L62.2763 46.1124ZM54.4356 30.3279C54.4356 30.3279 54.3607 30.3279 54.3326 30.3279C54.1171 30.356 53.808 30.4778 53.3021 31.1429C53.3021 31.1429 53.0211 31.5644 53.1429 31.6862C53.3208 31.8735 54.4075 32.904 55.5504 34C57.9859 36.3232 59.7283 38 60.0094 38.2998C60.5995 38.9368 61.2272 40.0703 61.2272 40.9227C61.2272 44.0141 61.5831 44.0141 62.2857 44.0141C62.9883 44.0141 63.3349 43.7518 63.5222 43.0866C63.719 42.3934 65.733 35.3021 65.8923 34.7494C66.089 33.7939 65.8361 33.3255 65.5176 33.2131C63.5597 32.6885 55.9813 30.6183 55.9813 30.6183C55.466 30.4684 54.7822 30.3372 54.445 30.3372L54.4356 30.3279ZM65.5176 33.2131H65.5457C65.5457 33.2131 65.5269 33.2131 65.5176 33.2131Z" fill="white"/>
<defs>
<linearGradient id="paint0_linear_14_1156" x1="83" y1="-0.5" x2="83" y2="123" gradientUnits="userSpaceOnUse">
<stop stop-color="#009DDB"/>
<stop offset="1" stop-color="#00527F"/>
</linearGradient>
<linearGradient id="paint1_linear_14_1156" x1="83" y1="-0.5" x2="83" y2="123" gradientUnits="userSpaceOnUse">
<stop stop-color="#009DDB"/>
<stop offset="1" stop-color="#00527F"/>
</linearGradient>
</defs>
</svg>
