<svg width="27" height="27" viewBox="0 0 27 27" fill="none" xmlns="http://www.w3.org/2000/svg">
<g clip-path="url(#clip0_205_3237)">
<path d="M6.61882 26.6869C6.15042 26.5268 5.64842 26.4873 5.17409 26.3371C2.25302 25.4181 0.187707 22.6571 0.0651719 19.5937C0.229211 15.4967 -0.144324 11.2416 0.0651719 7.16233C0.266762 3.26294 3.26294 0.266762 7.16232 0.0651719C11.2593 0.229211 15.5145 -0.144324 19.5937 0.0651719C22.7184 0.225258 25.3608 2.21151 26.3391 5.17409L26.6889 6.67021V20.1352C26.5288 20.6036 26.4893 21.1056 26.3391 21.58C25.6434 23.7836 23.7856 25.6414 21.5819 26.3371C21.076 26.4972 20.5443 26.5505 20.0344 26.6869H6.61882ZM7.33625 2.42298C4.44679 2.59888 2.54947 4.60095 2.4052 7.47459C2.19965 11.5736 2.51587 15.888 2.46646 20.0008C2.7728 22.2144 4.54363 23.9832 6.75519 24.2896C10.8799 24.2323 15.222 24.5663 19.3289 24.3469C22.2223 24.1927 24.1927 22.2203 24.3469 19.3289C24.5643 15.22 24.2323 10.8779 24.2896 6.75519C23.9813 4.53968 22.2124 2.7728 20.0008 2.46646C15.8544 2.53168 11.4649 2.17198 7.33625 2.42298Z" fill="white"/>
<path d="M12.9514 6.52986C18.2876 6.18795 21.9201 11.8661 19.4358 16.6015C17.2638 20.742 11.5541 21.4732 8.36024 18.0561C4.41343 13.8326 7.20406 6.89747 12.9514 6.52789V6.52986ZM12.7952 8.92127C9.50654 9.25528 7.80488 13.2061 9.66465 15.9196C11.5363 18.649 15.7084 18.4672 17.3033 15.5619C19.1018 12.2851 16.4752 8.54576 12.7952 8.92127Z" fill="white"/>
<path d="M20.1748 4.55158C22.5978 4.17211 22.9634 7.62088 20.825 7.95884C18.4948 8.32645 18.0936 4.87768 20.1748 4.55158Z" fill="white"/>
</g>
<defs>
<clipPath id="clip0_205_3237">
<rect width="26.687" height="26.687" fill="white"/>
</clipPath>
</defs>
</svg>
