<svg width="104" height="104" viewBox="0 0 104 104" fill="none" xmlns="http://www.w3.org/2000/svg">
<circle cx="52" cy="52" r="52" fill="#009DDB"/>
<mask id="mask0_14_1158" style="mask-type:alpha" maskUnits="userSpaceOnUse" x="0" y="0" width="104" height="104">
<circle cx="52" cy="52" r="52" fill="#009DDB"/>
</mask>
<g mask="url(#mask0_14_1158)">
<path d="M4 123H72.6974L162 -33H93.3026L4 123Z" fill="url(#paint0_linear_14_1158)"/>
</g>
<path d="M51.5968 24.2742L74.9967 30.3806V37.0871C74.9484 54.2645 66.1226 70.2323 51.5968 79.4064C37.0806 70.2419 28.2452 54.2935 28.1968 37.1161V30.4097L51.5968 24.2742ZM51.5968 22L51.0451 22.1452L27.6451 28.2806L26 28.7065V37.1065C26.029 45.9032 28.2935 54.6226 32.5516 62.3161C36.8097 70.0097 42.9935 76.5613 50.4258 81.2548L51.5968 82L52.7677 81.2548C60.2097 76.5613 66.3935 70.0097 70.6516 62.3065C74.9097 54.6032 77.1742 45.8839 77.1935 37.0871V30.3806V28.6774L75.5484 28.2516L52.1484 22.1452L51.5871 22H51.5968Z" fill="white"/>
<path d="M52.8071 59.1128C52.8555 59.2289 52.9135 59.3451 52.9619 59.4418C53.349 60.2354 53.9587 61.4257 54.5103 61.8418C54.9071 62.1321 55.3619 62.2967 55.7974 62.4321C55.8748 62.4515 55.9522 62.4805 56.02 62.4999C56.3684 62.6063 56.7361 62.7225 57.0555 62.9063L57.0845 62.9257C57.278 63.0418 57.5393 63.1967 57.6845 63.3902C58.1393 63.7386 58.3716 64.116 58.3716 64.5321C58.3716 64.5515 58.3716 64.5805 58.3426 64.5902C58.3232 64.5999 58.3038 64.6096 58.2845 64.6096C58.2458 64.6096 58.2071 64.5805 58.2071 64.5418C58.1587 64.1451 57.5877 63.5934 57.2297 63.4192C56.8716 63.245 56.5426 63.1676 56.1942 63.0709C56.049 63.0322 55.9135 62.9934 55.778 62.9547C55.3232 62.8192 54.8587 62.6741 54.4619 62.4128C54.5006 62.5096 54.5296 62.6063 54.5587 62.6934C54.6167 62.8192 54.6651 62.945 54.7135 63.0805C54.8587 63.3031 54.9845 63.5451 55.1103 63.7773C55.1684 63.8838 55.2168 63.9902 55.2748 64.0967C55.4587 64.4354 55.6232 64.7934 55.7393 65.1225V65.1418C55.8458 65.2967 55.9619 65.4031 56.0877 65.5192C56.1264 65.5483 56.1555 65.587 56.1942 65.616C56.5426 65.9451 56.8716 66.2741 57.0942 66.6709C57.5393 67.4644 57.6748 68.1515 57.5297 68.8773C57.52 68.9354 57.4329 68.9644 57.3942 68.916C57.3748 68.8967 57.3748 68.8773 57.3748 68.858C57.4522 68.0257 57.1038 67.058 56.4651 66.3515C56.349 66.216 56.2232 66.0999 56.0974 65.9838C56.0393 65.9257 55.9813 65.8676 55.9232 65.8096C56.02 66.3418 55.9619 66.7676 55.7393 67.087C55.7103 67.1354 55.6329 67.1257 55.6039 67.087C55.5845 67.0676 55.5845 67.0386 55.6039 67.0096C55.7297 66.7096 55.6813 66.1967 55.5845 65.8192C55.5071 65.5289 55.3909 65.2289 55.2264 64.8709C55.1103 64.6289 54.6942 63.9515 54.4135 63.2063C54.3845 63.5644 54.3071 63.9128 54.1716 64.3386C54.0361 64.7451 53.9393 65.1805 54.0748 65.5483C54.0845 65.5773 54.0748 65.6063 54.0652 65.6354C54.0264 65.6934 53.9393 65.6934 53.9006 65.6354C53.6103 65.1612 53.7458 64.658 53.8716 64.1838C53.9006 64.0773 53.9296 63.9709 53.949 63.8644C54.0554 63.3805 54.0845 62.9741 54.0458 62.6354C54.0361 62.5289 54.0071 62.4225 53.9587 62.3063C53.8232 62.0838 53.678 61.9676 53.4748 61.6967L53.2909 61.5418C53.2329 61.4644 53.2232 61.8709 53.1651 62.1322C53.1264 62.3063 53.0684 62.4709 53.0103 62.6257C53.0974 62.9063 53.1651 63.1967 53.2232 63.4676C53.2232 63.4676 53.4071 64.087 52.9426 64.8031C52.9039 64.8612 52.8071 64.8709 52.7587 64.8225C52.7393 64.8031 52.7296 64.7644 52.7393 64.7354C52.778 64.5805 52.8071 64.416 52.8361 64.2709C52.8167 63.8451 52.749 63.8934 52.5845 63.4676L52.5071 63.5934C52.3716 63.8354 52.2167 64.0676 52.0716 64.2999C52.0716 64.3096 52.0522 64.3192 52.0522 64.3386C52.0522 64.4838 52.0716 64.6289 52.1006 64.7644L52.1393 64.8805C52.2748 65.2967 52.4006 65.6838 52.6522 66.0321C52.7393 66.1483 52.8361 66.2644 52.9522 66.3805L53.0393 66.4386C53.1167 66.487 53.1845 66.5354 53.2619 66.5934C53.4458 66.7192 53.6393 66.8547 53.8426 66.9418C53.9974 67.0096 54.1619 67.058 54.3167 67.1063C54.3845 67.1257 54.4619 67.1547 54.5296 67.1741C55.3813 67.4644 56.2909 68.1805 56.378 69.0999C56.378 69.1289 56.378 69.158 56.3587 69.1773C56.3103 69.2257 56.2135 69.216 56.1942 69.1483C56.0296 68.6644 55.5555 68.1128 55.0522 67.8225C54.8103 67.687 53.4748 67.3192 53.2716 67.1644C53.1748 67.087 53.0684 67.0096 52.9619 66.9225C53.02 67.1354 53.049 67.3386 53.049 67.5225C53.1845 67.9773 53.2039 68.4322 53.0974 68.8773C53.0974 68.916 53.0587 68.9354 53.02 68.9354C52.9813 68.9354 52.9522 68.9063 52.9426 68.8676C52.9232 68.7418 52.9135 68.616 52.8942 68.4805C52.8458 68.016 52.7877 67.5321 52.5458 67.116C52.449 66.9515 52.3232 66.7967 52.2071 66.6515C52.0038 66.3902 51.8006 66.1289 51.6942 65.8096C51.6264 65.5967 51.5877 65.3547 51.5684 65.1128C51.3167 65.5967 51.1425 66.187 51.0458 66.8934C51.0361 66.9902 51.0168 67.0967 51.0071 67.1934C51.0071 67.3192 51.0264 67.4354 51.0458 67.5515C51.1329 68.0451 51.3652 68.4612 51.6168 68.9063L51.6458 68.9644C51.8393 69.3128 51.9168 69.6999 51.9748 70.0386C51.9845 70.1063 52.0038 70.1838 52.0135 70.2515C52.0619 70.4934 52.1103 70.7547 52.0619 71.0063C52.0619 71.0451 52.0232 71.0741 51.9748 71.0741C51.9264 71.0741 51.8877 71.0451 51.8877 70.9967C51.8393 70.7063 51.7425 70.4063 51.6555 70.116C51.6167 69.9902 51.578 69.8547 51.5393 69.7289C51.4426 69.3805 51.278 69.0902 51.1038 68.7805C51.0554 68.6934 51.0071 68.616 50.9684 68.5289C50.949 68.4902 50.92 68.4418 50.9006 68.3934C50.8522 69.1773 50.8813 69.9709 51.0651 70.7354C51.0748 70.7934 51.0651 70.8515 51.0264 70.8999C50.9877 70.9483 50.9297 70.9773 50.8813 70.9773C50.8039 70.9773 50.7458 70.9289 50.7167 70.8515C50.5135 70.2612 50.3974 69.6515 50.349 69.0418C50.2813 69.1289 50.2135 69.2257 50.1555 69.3128C50.0684 69.4192 49.9813 69.5354 49.9135 69.6515C49.7684 69.8741 49.6716 70.087 49.5942 70.2902C49.5651 70.4451 49.5361 70.5999 49.5264 70.7547C49.4974 71.1321 49.449 71.5289 49.3038 71.916C49.2942 71.9547 49.2555 71.9741 49.2168 71.9741C49.1877 71.9741 49.1587 71.9644 49.1393 71.9354C49.12 71.916 49.1103 71.887 49.12 71.858C49.1587 71.5967 49.1684 71.3257 49.1877 71.0644C49.2264 70.4354 49.2555 69.7773 49.5845 69.187C49.6716 69.0225 49.778 68.8676 49.8748 68.7225C50.0103 68.5192 50.1458 68.316 50.2522 68.0934C50.2813 68.0257 50.3103 67.9676 50.3297 67.8999C50.349 67.2418 50.4361 66.5934 50.5329 65.9547C50.4748 66.0225 50.4264 66.0902 50.3684 66.158C50.2426 66.3128 50.1071 66.4483 50.0103 66.6128C49.3813 67.6289 48.8393 68.2773 48.7039 69.4289C48.7039 69.4676 48.6651 69.5063 48.6168 69.5063C48.5684 69.5063 48.5297 69.4676 48.5297 69.4192C48.5006 68.7612 48.6361 68.4902 48.9748 67.7354C48.9651 67.7451 48.9458 67.7644 48.9361 67.7741C48.7232 67.9967 48.4813 68.1709 48.249 68.3451C48.1426 68.4225 48.0361 68.4999 47.9296 68.587C47.649 68.8096 47.4167 69.0128 47.2426 69.3031L47.2038 69.3612C47.1264 69.487 47.049 69.6128 46.9619 69.7386C46.7296 70.0676 46.4587 70.3096 46.1684 70.4354H46.1297C46.1297 70.4354 46.0619 70.416 46.0522 70.387C46.0426 70.3483 46.0522 70.3096 46.0813 70.2902C46.4297 70.0386 46.6522 69.6902 46.8651 69.3515L46.8845 69.3128C47.02 68.9838 47.2522 68.4902 47.6296 68.1418C47.8329 67.9483 48.0555 67.7741 48.278 67.5999C48.3942 67.5031 48.52 67.416 48.6361 67.3096C49.4006 66.6805 50.0393 65.8483 50.5135 64.8515C50.6297 64.6096 50.7458 64.3483 50.8522 64.0967C51.0168 63.158 51.2006 61.6967 51.0942 61.6386C50.978 61.5805 50.62 61.8999 50.2426 62.2096C50.1264 62.3063 50.0103 62.3934 49.8942 62.4805C49.72 62.616 49.5361 62.7515 49.3716 62.9063C49.2748 63.0805 49.178 63.2934 49.2071 63.5257C49.2264 63.6999 49.3038 63.8644 49.3813 64.0386C49.449 64.1741 49.4877 64.3483 49.4974 64.5031C49.5071 64.9483 49.5942 65.0354 49.3426 65.5289C49.3135 65.587 49.2264 65.587 49.1877 65.5483C49.1684 65.5289 49.1684 65.4999 49.1684 65.4805C49.2361 65.1902 49.2652 65.0354 49.1974 64.6967C49.1587 64.4838 49.1587 64.445 49.0716 64.2515C49.0232 64.145 48.9845 64.0483 48.9361 63.9418C48.9167 63.9031 48.9071 63.8644 48.8974 63.8257C48.8974 63.8741 48.578 64.3676 47.9974 64.6967C47.7748 64.8225 47.5716 64.9386 47.4361 65.1418C47.349 65.2676 47.2813 65.4031 47.1942 65.558C47.02 65.887 46.8458 66.2354 46.5264 66.4096H46.5167L46.4877 66.4192C46.4587 66.4192 46.42 66.3999 46.4103 66.3709C46.4006 66.3418 46.4103 66.3128 46.42 66.2838C46.5942 66.0709 46.7103 65.8192 46.8264 65.5773C46.9232 65.3644 47.0296 65.1321 47.1748 64.9386C47.3296 64.7354 47.5426 64.5999 47.7555 64.4644C48.0071 64.3096 48.249 64.1644 48.3748 63.8934C48.4329 63.7676 48.4813 63.6321 48.5297 63.4967C48.6458 63.187 48.7619 62.8676 49.0039 62.6257C49.0329 62.5967 49.0716 62.5676 49.1006 62.5289C49.0039 62.558 48.8974 62.587 48.8006 62.6063C48.6361 62.6547 48.4619 62.6934 48.3071 62.7418C48.1716 62.7805 48.0361 62.8289 47.9103 62.8773C47.6297 63.0709 47.349 63.2644 47.1845 63.5838C47.0974 63.7483 47.0296 63.9225 46.9619 64.0967C46.9232 64.2031 46.8845 64.3096 46.8361 64.4063C46.6522 64.8321 46.42 65.258 46.0232 65.4225H45.9942C45.9942 65.4225 45.9264 65.4031 45.9168 65.3741C45.9071 65.3354 45.9168 65.3063 45.9458 65.2773C46.2942 65.016 46.4393 64.5709 46.5748 64.1547C46.6426 63.9418 46.72 63.7289 46.8071 63.5354C46.8264 63.487 46.8555 63.4483 46.8748 63.4096C46.4974 63.6709 46.1974 63.9902 45.9942 64.3483C45.7329 64.7934 45.5103 65.258 45.3555 65.7128C45.2781 65.9451 45.2297 66.187 45.1716 66.4192C45.1232 66.6418 45.0748 66.8838 44.9974 67.1063C44.978 67.1644 44.8909 67.1741 44.8522 67.1257C44.8329 67.1063 44.8329 67.0773 44.8329 67.058C44.8813 66.8451 44.9103 66.6225 44.9393 66.4096C44.9684 66.1483 44.9974 65.887 45.0748 65.616V65.5967C45.1329 65.1418 45.2103 64.6773 45.4038 64.2709C44.8522 64.8128 44.3781 65.4418 43.9329 66.2257C43.9039 66.2741 43.8264 66.2838 43.7974 66.2257C43.778 66.2063 43.778 66.1773 43.7877 66.1483C44.3587 64.5321 45.8297 63.0805 47.5232 62.4515C47.7361 62.3741 47.9684 62.2967 48.191 62.2289C48.8103 62.0354 49.4587 61.8322 49.9716 61.4063C50.4071 61.0483 50.8135 60.3612 50.7845 59.6257C50.7845 59.5289 50.7458 59.3451 50.6781 59.1128H34.8555C38.7168 66.6902 44.4458 73.0967 51.5684 77.7709C58.6909 73.0967 64.42 66.6902 68.2813 59.1128H52.7684H52.8071Z" fill="white"/>
<path d="M50.3965 45.6131C50.261 45.0227 50.0771 44.355 49.8255 43.7744C49.1771 42.2744 48.6546 41.5776 48.1029 40.8227C47.561 40.0873 47.1933 39.0518 47.1933 39.0518C47.1933 39.0518 47.7836 40.0292 48.1707 40.5227C48.6545 41.1324 49.0223 41.3937 50.0191 42.6614C50.4836 43.2421 50.8126 44.084 51.0352 44.8195C51.3255 44.4711 51.6352 44.1227 51.9449 43.7744C51.6642 43.0195 51.1513 41.9163 50.3094 40.9002C49.1965 39.5647 47.9384 38.4034 46.9513 36.555C45.4417 33.7195 44.6191 28.6969 44.6191 28.6969C44.6191 28.6969 42.8287 32.5873 44.1062 35.3356C45.0449 37.3582 44.9384 39.4098 45.5481 41.5292C46.6126 45.226 47.9868 47.384 48.79 48.4195C49.1481 47.4227 49.7094 46.4937 50.3965 45.5937V45.6131Z" fill="white"/>
<path d="M53.4266 52.3097C55.6427 48.4387 58.9911 47.1806 60.1717 42.7097C60.5395 41.3258 59.9491 39.071 60.2201 37.4355C60.4911 35.8097 59.7749 32.8774 59.7749 32.8774C59.7749 32.8774 59.4653 35.7129 56.204 40.1839C53.504 43.9 49.5169 46.5613 49.2556 50.3645C49.2266 50.8193 49.2266 51.2839 49.2459 51.7581C49.6233 50.0452 50.4846 48.5258 52.5072 46.5129C56.3685 42.6613 56.9201 41.4516 56.9201 41.4516C56.9201 41.4516 56.8136 42.7484 53.4362 46.4161C51.3943 48.6323 49.0717 51.9032 49.662 55C50.0201 56.7613 50.4943 58.3 50.6975 59.1129H52.7878C52.2362 57.8839 51.5491 55.5516 53.4072 52.3097H53.4266Z" fill="white"/>
<defs>
<linearGradient id="paint0_linear_14_1158" x1="83" y1="-0.5" x2="83" y2="123" gradientUnits="userSpaceOnUse">
<stop stop-color="#009DDB"/>
<stop offset="1" stop-color="#00527F"/>
</linearGradient>
</defs>
</svg>
