<svg width="104" height="104" viewBox="0 0 104 104" fill="none" xmlns="http://www.w3.org/2000/svg">
<circle cx="52" cy="52" r="52" fill="#009DDB"/>
<mask id="mask0_14_1177" style="mask-type:alpha" maskUnits="userSpaceOnUse" x="0" y="0" width="104" height="104">
<circle cx="52" cy="52" r="52" fill="#009DDB"/>
</mask>
<g mask="url(#mask0_14_1177)">
<path d="M4 123H72.6974L162 -33H93.3026L4 123Z" fill="url(#paint0_linear_14_1177)"/>
</g>
<path d="M20 56.3338C20 51.2471 20 46.1604 20 41.0737C22.8256 40.0477 25.6529 39.0199 28.4995 37.9852C29.9474 40.3833 31.8569 42.2476 34.4631 43.1832C35.9689 43.724 37.6098 43.9171 39.2052 44.1779C39.8212 44.2788 40.2617 43.8614 40.3091 43.2093C40.36 42.5137 39.9774 42.138 39.2894 42.0598C38.97 42.0233 38.6506 41.9937 38.3312 41.9624C35.0774 41.6424 32.5466 40.112 30.76 37.42C29.721 35.8531 28.7698 34.2289 27.794 32.622C27.3079 31.822 27.5185 31.4394 28.468 31.4342C31.8516 31.4203 35.2353 31.396 38.619 31.4568C39.3105 31.469 40.1265 31.6603 40.6513 32.0655C41.3533 32.6098 41.8798 33.4098 42.3852 34.161C43.1434 35.2879 43.8051 36.4809 44.5422 37.6235C44.7177 37.8965 45.016 38.2426 45.2863 38.2704C45.6654 38.3087 46.2761 38.1921 46.4183 37.9382C46.6131 37.5887 46.6289 36.9609 46.4341 36.6061C45.6355 35.1488 44.7282 33.7506 43.8279 32.2777C44.6755 31.9559 45.4442 31.6899 46.1884 31.3716C46.6535 31.1716 46.936 31.2273 47.2923 31.6342C49.3439 33.9837 52.0027 34.9297 55.0881 34.7819C56.55 34.7106 57.6451 34.0515 58.2032 32.6637C58.3524 32.2933 58.4314 31.8951 58.5665 31.4273C59.7705 32.3751 60.9077 33.3159 62.0923 34.1924C65.5199 36.7244 68.8386 39.2964 70.1917 43.6232C70.7428 45.3883 72.1661 46.5865 73.8211 47.4525C75.9307 48.5568 78.0261 49.6924 80.1585 50.7498C80.8728 51.1045 81.6696 51.3323 82.4558 51.4958C83.8809 51.7914 84.9058 52.5984 85.0058 53.9618C85.1147 55.4504 85.0831 56.9668 84.9076 58.4485C84.8216 59.1685 84.3951 59.9423 83.9055 60.504C82.4172 62.2066 80.8465 63.8413 79.2582 65.4551C78.0595 66.6742 76.5923 67.1767 74.8759 66.7385C73.2156 66.3142 71.5659 65.8481 69.8934 65.4742C69.495 65.3855 68.9176 65.4412 68.6105 65.6742C64.5915 68.7332 60.0372 70.3644 55.0179 70.8287C51.4376 71.1609 48.1715 70.4131 45.3863 68.0776C42.5028 65.662 40.5741 62.6378 39.579 59.0154C39.4824 58.6659 38.9981 58.252 38.6383 58.1911C38.3241 58.1372 37.7801 58.4607 37.6151 58.7633C37.4396 59.0902 37.5045 59.6102 37.6081 60.0084C38.2399 62.417 39.4456 64.5525 40.9444 66.5246C43.2908 69.6149 46.234 71.8669 50.1214 72.7365C50.5847 72.8408 51.0515 72.9295 51.5693 73.0373C50.5636 75.8911 49.6159 78.6422 48.6033 81.3708C48.4997 81.6473 48.0259 81.9412 47.7082 81.9603C46.5166 82.0299 45.3179 81.9864 44.1227 81.9882C41.8886 81.9934 39.9581 81.2404 38.375 79.6752C33.7295 75.0824 29.0805 70.4914 24.4577 65.8759C22.4658 63.8865 21.1478 61.5022 20.5054 58.7667C20.3159 57.9616 20.1667 57.146 20 56.3338ZM59.8582 44.2718C60.6129 44.0945 60.999 44.3205 60.9586 45.117C60.9393 45.5187 60.9375 45.9257 60.9621 46.3274C61.006 47.0108 61.3078 47.4943 62.0713 47.5047C62.7961 47.5151 63.1331 47.0543 63.1682 46.4143C63.205 45.7274 63.2068 45.0266 63.1032 44.3483C62.8996 43.0041 61.9098 42.1189 60.5479 42.0754C59.0369 42.0267 57.524 42.0511 56.0112 42.058C55.2934 42.0615 54.8178 42.4111 54.8389 43.1502C54.8599 43.8805 55.3461 44.2023 56.0603 44.204C56.5693 44.204 57.0765 44.204 57.5714 44.204C57.689 45.9396 57.954 46.4856 58.6981 46.423C60.1074 46.3048 59.6792 45.1135 59.8547 44.2718H59.8582ZM78.944 54.7183C78.944 56.6451 80.004 58.1337 81.5362 58.5511C82.168 58.7233 82.7682 58.685 83.049 57.9529C83.3035 57.2868 82.9964 56.8468 82.4119 56.5495C81.194 55.9304 81.1202 55.7808 81.2062 54.3357C81.2396 53.7618 81.0044 53.3201 80.3989 53.1722C79.7671 53.0175 79.3055 53.2592 79.1002 53.8661C78.9826 54.2122 78.9633 54.593 78.9423 54.7183H78.944Z" fill="white"/>
<path d="M67.6079 22C66.5917 22.3982 65.5878 22.8295 64.5576 23.1878C62.7482 23.8173 60.9248 24.4086 59.103 24.9998C57.8201 25.4155 57.0497 26.2154 56.8794 27.591C56.7127 28.9353 56.5074 30.2796 56.1967 31.596C56.1072 31.9717 55.6158 32.4916 55.2613 32.5316C52.7727 32.8064 50.5965 32.1351 48.873 30.1126C49.9805 28.0814 51.0721 26.0189 52.2216 23.986C52.8604 22.8556 54.0135 22.3982 55.1806 22.0017C59.3224 22.0017 63.466 22.0017 67.6079 22.0017V22Z" fill="white"/>
<path d="M71.3346 26.1181C69.032 26.885 66.7224 27.6328 64.4303 28.4293C63.165 28.8692 61.7065 29.0223 61.0221 30.5457C60.364 30.0344 59.7304 29.5822 59.1477 29.0762C58.6985 28.6866 58.9757 27.3719 59.5812 27.1789C61.3889 26.6015 63.1106 25.7459 65.1183 25.8572C67.1682 25.9702 69.2286 25.8816 71.2837 25.8816C71.3012 25.9598 71.317 26.0398 71.3346 26.1181Z" fill="white"/>
<defs>
<linearGradient id="paint0_linear_14_1177" x1="83" y1="-0.5" x2="83" y2="123" gradientUnits="userSpaceOnUse">
<stop stop-color="#009DDB"/>
<stop offset="1" stop-color="#00527F"/>
</linearGradient>
</defs>
</svg>

