<svg width="40" height="40" viewBox="0 0 40 40" fill="none" xmlns="http://www.w3.org/2000/svg">
<circle cx="20" cy="20" r="20" fill="#009DDB"/>
<path d="M31.5001 14.5071C31.3642 14.0223 31.0995 13.5834 30.7341 13.2371C30.3584 12.8801 29.8979 12.6247 29.3961 12.4951C27.5181 12.0001 19.9941 12.0001 19.9941 12.0001C16.8575 11.9644 13.7216 12.1214 10.6041 12.4701C10.1023 12.6093 9.64269 12.8704 9.26613 13.2301C8.89613 13.5861 8.62813 14.0251 8.48813 14.5061C8.15182 16.3178 7.98842 18.1574 8.00013 20.0001C7.98813 21.8411 8.15113 23.6801 8.48813 25.4941C8.62513 25.9731 8.89213 26.4101 9.26313 26.7631C9.63413 27.1161 10.0961 27.3711 10.6041 27.5061C12.5071 28.0001 19.9941 28.0001 19.9941 28.0001C23.1348 28.0358 26.2747 27.8789 29.3961 27.5301C29.8979 27.4004 30.3584 27.1451 30.7341 26.7881C31.0994 26.4418 31.3638 26.0029 31.4991 25.5181C31.8442 23.707 32.012 21.8667 32.0001 20.0231C32.0261 18.1717 31.8585 16.3226 31.5001 14.5061V14.5071ZM17.6021 23.4241V16.5771L23.8621 20.0011L17.6021 23.4241Z" fill="white"/>
</svg>
