<svg width="40" height="40" viewBox="0 0 40 40" fill="none" xmlns="http://www.w3.org/2000/svg">
<circle cx="20" cy="20" r="20" fill="#009DDB"/>
<path d="M28.9471 16.3054C28.937 15.5481 28.7952 14.7982 28.5281 14.0894C28.2964 13.4916 27.9426 12.9486 27.4892 12.4953C27.0359 12.0419 26.4929 11.6881 25.8951 11.4564C25.1954 11.1938 24.4562 11.0518 23.7091 11.0364C22.7471 10.9934 22.4421 10.9814 20.0001 10.9814C17.5581 10.9814 17.2451 10.9814 16.2901 11.0364C15.5432 11.0519 14.8044 11.1939 14.1051 11.4564C13.5071 11.6879 12.9641 12.0417 12.5107 12.4951C12.0573 12.9485 11.7036 13.4915 11.4721 14.0894C11.2089 14.7886 11.0672 15.5276 11.0531 16.2744C11.0101 17.2374 10.9971 17.5424 10.9971 19.9844C10.9971 22.4264 10.9971 22.7384 11.0531 23.6944C11.0681 24.4424 11.2091 25.1804 11.4721 25.8814C11.7039 26.4792 12.058 27.022 12.5115 27.4752C12.965 27.9284 13.5081 28.282 14.1061 28.5134C14.8035 28.7866 15.5424 28.9388 16.2911 28.9634C17.2541 29.0064 17.5591 29.0194 20.0011 29.0194C22.4431 29.0194 22.7561 29.0194 23.7111 28.9634C24.4582 28.9487 25.1974 28.807 25.8971 28.5444C26.4948 28.3125 27.0376 27.9586 27.4909 27.5053C27.9442 27.052 28.2982 26.5091 28.5301 25.9114C28.7931 25.2114 28.9341 24.4734 28.9491 23.7244C28.9921 22.7624 29.0051 22.4574 29.0051 20.0144C29.0031 17.5724 29.0031 17.2624 28.9471 16.3054ZM19.9941 24.6024C17.4401 24.6024 15.3711 22.5334 15.3711 19.9794C15.3711 17.4254 17.4401 15.3564 19.9941 15.3564C21.2202 15.3564 22.396 15.8435 23.263 16.7105C24.13 17.5775 24.6171 18.7533 24.6171 19.9794C24.6171 21.2055 24.13 22.3814 23.263 23.2484C22.396 24.1154 21.2202 24.6024 19.9941 24.6024ZM24.8011 16.2634C24.6595 16.2636 24.5192 16.2358 24.3884 16.1817C24.2575 16.1275 24.1386 16.0481 24.0385 15.948C23.9384 15.8479 23.859 15.729 23.8049 15.5981C23.7507 15.4673 23.7229 15.327 23.7231 15.1854C23.7231 15.0439 23.7509 14.9038 23.8051 14.7731C23.8592 14.6424 23.9386 14.5236 24.0387 14.4235C24.1387 14.3235 24.2575 14.2441 24.3882 14.19C24.519 14.1358 24.6591 14.1079 24.8006 14.1079C24.9421 14.1079 25.0822 14.1358 25.2129 14.19C25.3436 14.2441 25.4624 14.3235 25.5625 14.4235C25.6625 14.5236 25.7419 14.6424 25.7961 14.7731C25.8502 14.9038 25.8781 15.0439 25.8781 15.1854C25.8781 15.7814 25.3961 16.2634 24.8011 16.2634Z" fill="white"/>
<path d="M19.9942 22.9816C21.6527 22.9816 22.9972 21.6371 22.9972 19.9786C22.9972 18.3201 21.6527 16.9756 19.9942 16.9756C18.3357 16.9756 16.9912 18.3201 16.9912 19.9786C16.9912 21.6371 18.3357 22.9816 19.9942 22.9816Z" fill="white"/>
</svg>
