<svg width="48" height="48" viewBox="0 0 48 48" fill="none" xmlns="http://www.w3.org/2000/svg">
<circle cx="24" cy="24" r="24" transform="rotate(-180 24 24)" fill="#E8E6E4" fill-opacity="0.6"/>
<path fill-rule="evenodd" clip-rule="evenodd" d="M22.3883 33.2181L14.7516 24.9218C14.2829 24.4127 14.2829 23.5873 14.7516 23.0782L22.3883 14.7818C22.857 14.2727 23.6168 14.2727 24.0854 14.7818C24.554 15.2909 24.554 16.1163 24.0854 16.6254L18.4972 22.6963L32.4001 22.6963C33.0628 22.6963 33.6001 23.28 33.6001 24C33.6001 24.72 33.0628 25.3036 32.4001 25.3036L18.4972 25.3036L24.0854 31.3745C24.554 31.8836 24.554 32.709 24.0854 33.2181C23.6168 33.7273 22.857 33.7273 22.3883 33.2181Z" fill="#005475"/>
</svg>
