<svg width="33" height="27" viewBox="0 0 33 27" fill="none" xmlns="http://www.w3.org/2000/svg">
<g clip-path="url(#clip0_205_3235)">
<path d="M31.4576 0.634459C31.0301 2.08611 29.9825 3.44141 28.6566 4.15678C28.6448 4.27041 28.8717 4.22496 28.9413 4.2186C30.1145 4.11952 31.2362 3.62503 32.3479 3.29052C31.7116 4.22314 30.9569 5.09395 30.1217 5.85386C29.9274 6.03112 29.0968 6.59378 29.0489 6.76376C29.0136 6.88738 29.1112 7.36369 29.1049 7.58458C28.9404 13.2357 26.6609 18.3543 22.5131 22.152C16.5649 27.5987 6.72834 28.1204 0.00189944 23.8155C-0.0152737 23.71 0.087765 23.7564 0.159169 23.7518C1.07748 23.7036 1.96596 23.7809 2.89783 23.6873C5.36805 23.44 7.75059 22.452 9.6794 20.9021C6.91182 20.8294 4.29066 18.9424 3.50341 16.26C4.27349 16.3218 5.04356 16.3736 5.81003 16.2418L6.43188 16.0682C3.38229 15.4891 1.04584 12.604 1.14708 9.47163C2.07713 9.86522 3.04335 10.2752 4.07554 10.2388L3.02256 9.34619C1.00969 7.1728 0.606574 3.94499 2.04008 1.33892C2.13769 1.31529 2.14221 1.35347 2.19464 1.4071C2.37721 1.59162 2.55798 1.8825 2.73785 2.07702C6.15259 5.76024 10.7694 8.07906 15.8229 8.31995C15.9069 8.30813 15.7343 7.58185 15.7271 7.45732C15.4279 2.09157 20.6756 -1.74981 25.5148 0.816256C26.1972 1.17803 26.7061 1.6807 27.2882 2.17247C28.7623 1.90886 30.1272 1.29529 31.4576 0.635368V0.634459Z" fill="white"/>
</g>
<defs>
<clipPath id="clip0_205_3235">
<rect width="32.3478" height="26.687" fill="white"/>
</clipPath>
</defs>
</svg>
