<svg width="212" height="70" viewBox="0 0 212 70" fill="none" xmlns="http://www.w3.org/2000/svg">
<path d="M35.0526 52.4705C35.0207 53.9574 36.0797 54.4115 37.4004 54.4115C38.1565 54.4115 39.3049 53.9958 39.3049 52.9469C39.3049 52.1283 38.4978 51.8054 37.8215 51.6423L36.2169 51.249C35.3716 51.0379 34.5932 50.6414 34.5932 49.5094C34.5932 48.8027 35.0462 47.4789 37.0719 47.4789C38.5042 47.4789 39.7323 48.2367 39.7323 49.7237H39.0465C38.9954 48.6332 38.1086 48.0673 37.0814 48.0673C36.1435 48.0673 35.2759 48.4318 35.2759 49.503C35.2759 50.1809 35.7703 50.4719 36.3637 50.603L38.1182 51.0379C39.1358 51.3097 39.9844 51.767 39.9844 52.9374C39.9844 53.433 39.7834 54.9999 37.2314 54.9999C35.5279 54.9999 34.2774 54.2324 34.3571 52.4737H35.043L35.0526 52.4705Z" fill="#D30F4B"/>
<path d="M41.0586 47.6326H42.0666L44.5581 53.9576L47.0367 47.6326H48.0448V54.8498H47.3589V48.6143H47.3398L44.8803 54.8498H44.2359L41.7668 48.6143H41.7476V54.8498H41.0618V47.6326H41.0586Z" fill="#D30F4B"/>
<path d="M51.5839 47.6326H52.3495L55.1727 54.8498H54.4358L53.5585 52.605H50.2823L49.4146 54.8498H48.6777L51.5807 47.6326H51.5839ZM50.4961 52.0166H53.3288L51.938 48.3169L50.4961 52.0166Z" fill="#D30F4B"/>
<path d="M55.8301 47.6326H59.1254C60.3057 47.6326 61.3138 48.2082 61.3138 49.5128C61.3138 50.4338 60.8384 51.1597 59.9133 51.3515V51.3707C60.8512 51.5018 61.1224 52.1286 61.1734 52.9983C61.2053 53.494 61.2053 54.4949 61.5052 54.8466H60.7491C60.5864 54.5748 60.5864 54.028 60.5577 53.7242C60.5067 52.7137 60.4078 51.5913 59.1158 51.6425H56.5159V54.8466H55.8301V47.6294V47.6326ZM56.5127 51.0573H59.0744C59.9101 51.0573 60.6279 50.5329 60.6279 49.6535C60.6279 48.7742 60.1143 48.2178 59.0744 48.2178H56.5127V51.0573Z" fill="#D30F4B"/>
<path d="M61.8359 47.6326H67.5429V48.2177H65.0324V54.8466H64.3465V48.2177H61.8359V47.6326Z" fill="#D30F4B"/>
<path d="M76.2846 49.8134C76.0421 48.7006 75.1266 48.0642 74.0771 48.0642C72.1726 48.0642 71.3655 49.6599 71.3655 51.2363C71.3655 52.8128 72.1726 54.4085 74.0771 54.4085C75.4073 54.4085 76.2559 53.3788 76.3867 52.0933H77.0725C76.8811 53.8712 75.7614 54.9936 74.0771 54.9936C71.809 54.9936 70.6797 53.2157 70.6797 51.2331C70.6797 49.2506 71.809 47.4727 74.0771 47.4727C75.4488 47.4727 76.7791 48.3009 76.9705 49.807H76.2846V49.8134Z" fill="#D30F4B"/>
<path d="M81.1298 47.479C83.3884 47.479 84.5176 49.2569 84.5176 51.2395C84.5176 53.2221 83.3884 55 81.1298 55C78.8713 55 77.7324 53.2221 77.7324 51.2395C77.7324 49.2569 78.8617 47.479 81.1298 47.479ZM81.1298 54.4116C83.0247 54.4116 83.8318 52.816 83.8318 51.2395C83.8318 49.663 83.0247 48.0674 81.1298 48.0674C79.2349 48.0674 78.4183 49.663 78.4183 51.2395C78.4183 52.816 79.2254 54.4116 81.1298 54.4116Z" fill="#D30F4B"/>
<path d="M85.5859 47.6326H88.8813C90.0616 47.6326 91.0696 48.2082 91.0696 49.5128C91.0696 50.4338 90.5943 51.1597 89.6692 51.3515V51.3707C90.6071 51.5018 90.8782 52.1286 90.9293 52.9983C90.9612 53.494 90.9612 54.4949 91.261 54.8466H90.505C90.3423 54.5748 90.3423 54.028 90.3136 53.7242C90.2625 52.7137 90.1637 51.5913 88.8717 51.6425H86.2718V54.8466H85.5859V47.6294V47.6326ZM86.2718 51.0573H88.8334C89.6692 51.0573 90.387 50.5329 90.387 49.6535C90.387 48.7742 89.8734 48.2178 88.8334 48.2178H86.2718V51.0573Z" fill="#D30F4B"/>
<path d="M92.3008 47.6326H93.0664L97.2613 53.737H97.2804V47.6326H97.9663V54.8498H97.2007L93.0058 48.7454H92.9866V54.8498H92.3008V47.6326Z" fill="#D30F4B"/>
<path d="M102.532 52.4706C102.5 53.9575 103.559 54.4116 104.88 54.4116C105.636 54.4116 106.784 53.9959 106.784 52.9471C106.784 52.1285 105.977 51.8055 105.301 51.6424L103.696 51.2491C102.851 51.038 102.072 50.6415 102.072 49.5095C102.072 48.8029 102.525 47.479 104.554 47.479C105.987 47.479 107.215 48.2369 107.215 49.7238H106.529C106.478 48.6334 105.591 48.0674 104.564 48.0674C103.626 48.0674 102.758 48.4319 102.758 49.5031C102.758 50.1811 103.253 50.472 103.846 50.6032L105.601 51.038C106.618 51.3098 107.467 51.7671 107.467 52.9375C107.467 53.4331 107.266 55 104.714 55C103.01 55 101.76 54.2325 101.84 52.4738H102.525L102.532 52.4706Z" fill="#D30F4B"/>
<path d="M110.567 51.8759L107.734 47.6326H108.551L110.921 51.2907L113.282 47.6326H114.099L111.256 51.8759V54.8466H110.57V51.8759H110.567Z" fill="#D30F4B"/>
<path d="M115.044 52.4706C115.012 53.9575 116.071 54.4116 117.391 54.4116C118.147 54.4116 119.296 53.9959 119.296 52.9471C119.296 52.1285 118.489 51.8055 117.812 51.6424L116.208 51.2491C115.363 51.038 114.584 50.6415 114.584 49.5095C114.584 48.8029 115.037 47.479 117.066 47.479C118.498 47.479 119.726 48.2369 119.726 49.7238H119.041C118.99 48.6334 118.103 48.0674 117.076 48.0674C116.138 48.0674 115.27 48.4319 115.27 49.5031C115.27 50.1811 115.764 50.472 116.358 50.6032L118.112 51.038C119.13 51.3098 119.979 51.7671 119.979 52.9375C119.979 53.4331 119.778 55 117.225 55C115.522 55 114.272 54.2325 114.351 52.4738H115.037L115.044 52.4706Z" fill="#D30F4B"/>
<path d="M120.293 47.6326H126V48.2177H123.489V54.8466H122.804V48.2177H120.293V47.6326Z" fill="#D30F4B"/>
<path d="M126.674 47.6325H131.644V48.2177H127.36V50.8238H131.373V51.409H127.36V54.2581H131.695V54.8433H126.674V47.6261V47.6325Z" fill="#D30F4B"/>
<path d="M132.633 47.6326H133.641L136.132 53.9576L138.614 47.6326H139.622V54.8498H138.936V48.6143H138.917L136.458 54.8498H135.813L133.344 48.6143H133.325V54.8498H132.639V47.6326H132.633Z" fill="#D30F4B"/>
<path d="M110.299 41.5249C106.573 41.5249 103.826 39.5998 102.301 36.7283L101.504 38.1129C103.319 40.9365 106.33 42.7336 110.299 42.7336C115.269 42.7336 119.26 38.7972 119.767 33.3707H118.373C118.121 37.5917 114.733 41.5281 110.299 41.5281V41.5249Z" fill="url(#paint0_radial_7_646)"/>
<path d="M117.99 26.291H119.384C119.384 26.0033 118.478 20.273 112.407 19.173L111.75 20.3146C114.889 20.823 117.467 22.9814 117.99 26.291Z" fill="url(#paint1_radial_7_646)"/>
<path d="M137.679 40.9877V42.1932H122.322V19.5311H137.52V20.7367H123.716V29.8149H136.697V31.0205H123.716V40.9845H137.679V40.9877Z" fill="url(#paint2_radial_7_646)"/>
<path d="M149.948 42.7336C143.172 42.7336 139.182 37.4958 139.182 30.8638C139.182 24.2317 143.172 18.9939 149.948 18.9939C156.724 18.9939 160.683 24.2317 160.683 30.8638C160.683 37.4958 156.692 42.7336 149.948 42.7336ZM149.948 41.5249C155.837 41.5249 159.288 36.6676 159.288 30.8606C159.288 25.0535 155.837 20.1962 149.948 20.1962C144.059 20.1962 140.576 25.0535 140.576 30.8606C140.576 36.6676 144.027 41.5249 149.948 41.5249Z" fill="url(#paint3_radial_7_646)"/>
<path d="M163.189 19.5311H164.931L179.21 40.3194H179.274V19.5311H180.668V42.19H179.022L164.647 21.2419H164.584V42.19H163.189V19.5311Z" fill="url(#paint4_radial_7_646)"/>
<path d="M45.3309 19.5311H41.5667L34.5996 31.6312V42.1932H40.4884V34.6402H45.3341C50.3042 34.6402 53.5038 32.4498 53.5038 26.8315C53.5038 21.2131 49.545 19.5311 45.3341 19.5311H45.3309ZM44.4473 30.0675H40.4884V24.2605H44.4473C46.2528 24.2605 47.6118 25.0855 47.6118 27.244C47.6118 29.4024 46.3134 30.0675 44.4473 30.0675Z" fill="url(#paint5_radial_7_646)"/>
<path d="M56.2891 19.5311H67.8147C71.7735 19.5311 75.7292 21.341 75.7292 25.9105C75.7292 28.3536 74.5903 30.6719 72.1819 31.5928V31.6568C74.5553 32.2612 75.3177 34.9248 75.474 37.0833C75.5697 38.0682 75.6335 41.3043 76.4246 42.1932H70.5996C70.0924 41.4002 70.0286 39.2417 69.9361 38.5766C69.7766 36.2903 69.4289 33.9432 66.6439 33.9432H62.1811V42.1964H56.2923V19.5311H56.2891ZM62.1779 29.3704H67.1161C68.8897 29.3704 69.8404 28.4495 69.8404 26.7036C69.8404 24.9576 68.5101 24.2605 66.8641 24.2605H62.1779V29.3704Z" fill="url(#paint6_radial_7_646)"/>
<path d="M85.0412 37.1153V32.7984H96.1234V28.2289H85.0412V24.2605H97.1697V19.5311H79.1523V42.1932H94.5603L97.4855 37.1153H85.0412Z" fill="url(#paint7_radial_7_646)"/>
<path d="M99.5371 30.7134C99.5371 30.7646 99.5371 30.8126 99.5371 30.8605C99.5371 30.9085 99.5371 30.9565 99.5371 31.0076C99.5435 31.7719 99.6073 32.5169 99.7189 33.2364L107.771 19.2593C102.59 20.3913 99.5913 25.0215 99.5403 30.7134H99.5371Z" fill="url(#paint8_radial_7_646)"/>
<path d="M92.852 46.7244H91.9492L110.222 15H111.125L92.852 46.7244Z" fill="#D30F4B"/>
<path d="M25.9028 46.7244H25L43.2726 15H44.1785L25.9028 46.7244Z" fill="#443247"/>
<path d="M28.5473 34.6403L39.8592 15H38.9564L27.6445 34.6403H28.5473Z" fill="#D30F4B"/>
<path d="M184.745 37.6846C185.97 37.6846 187 38.6535 187 39.9262C187 41.1988 185.973 42.1933 184.745 42.1933C183.517 42.1933 182.477 41.2244 182.477 39.9262C182.477 38.6279 183.51 37.6846 184.745 37.6846ZM184.745 41.8608C185.785 41.8608 186.592 41.0294 186.592 39.9262C186.592 38.8229 185.785 38.0171 184.745 38.0171C183.705 38.0171 182.888 38.8485 182.888 39.9262C182.888 41.0038 183.689 41.8608 184.745 41.8608ZM183.867 38.6183H184.885C185.51 38.6183 185.804 38.8645 185.804 39.373C185.804 39.8494 185.504 40.0477 185.112 40.0892L185.864 41.2532H185.424L184.71 40.1212H184.276V41.2532H183.867V38.6183ZM184.276 39.7887H184.703C185.064 39.7887 185.395 39.7695 185.395 39.3538C185.395 39.0052 185.096 38.9509 184.818 38.9509H184.276V39.7887Z" fill="#443247"/>
<defs>
<radialGradient id="paint0_radial_7_646" cx="0" cy="0" r="1" gradientUnits="userSpaceOnUse" gradientTransform="translate(102.901 27.5317) scale(79.1578 79.3477)">
<stop stop-color="#D30F4B"/>
<stop offset="1" stop-color="#443247"/>
</radialGradient>
<radialGradient id="paint1_radial_7_646" cx="0" cy="0" r="1" gradientUnits="userSpaceOnUse" gradientTransform="translate(25.1595 15.1599) scale(79.1577 79.3477)">
<stop stop-color="#D30F4B"/>
<stop offset="1" stop-color="#443247"/>
</radialGradient>
<radialGradient id="paint2_radial_7_646" cx="0" cy="0" r="1" gradientUnits="userSpaceOnUse" gradientTransform="translate(25.1599 15.1599) scale(79.1578 79.3477)">
<stop stop-color="#D30F4B"/>
<stop offset="1" stop-color="#443247"/>
</radialGradient>
<radialGradient id="paint3_radial_7_646" cx="0" cy="0" r="1" gradientUnits="userSpaceOnUse" gradientTransform="translate(25.1599 15.1599) scale(79.1577 79.3477)">
<stop stop-color="#D30F4B"/>
<stop offset="1" stop-color="#443247"/>
</radialGradient>
<radialGradient id="paint4_radial_7_646" cx="0" cy="0" r="1" gradientUnits="userSpaceOnUse" gradientTransform="translate(25.1594 15.1599) scale(79.1578 79.3477)">
<stop stop-color="#D30F4B"/>
<stop offset="1" stop-color="#443247"/>
</radialGradient>
<radialGradient id="paint5_radial_7_646" cx="0" cy="0" r="1" gradientUnits="userSpaceOnUse" gradientTransform="translate(102.902 27.5318) scale(79.1577 79.3477)">
<stop stop-color="#D30F4B"/>
<stop offset="1" stop-color="#443247"/>
</radialGradient>
<radialGradient id="paint6_radial_7_646" cx="0" cy="0" r="1" gradientUnits="userSpaceOnUse" gradientTransform="translate(25.1606 15.1599) scale(79.1577 79.3477)">
<stop stop-color="#D30F4B"/>
<stop offset="1" stop-color="#443247"/>
</radialGradient>
<radialGradient id="paint7_radial_7_646" cx="0" cy="0" r="1" gradientUnits="userSpaceOnUse" gradientTransform="translate(25.1608 15.1599) scale(79.1578 79.3477)">
<stop stop-color="#D30F4B"/>
<stop offset="1" stop-color="#443247"/>
</radialGradient>
<radialGradient id="paint8_radial_7_646" cx="0" cy="0" r="1" gradientUnits="userSpaceOnUse" gradientTransform="translate(25.1612 15.1598) scale(79.1577 79.3477)">
<stop stop-color="#D30F4B"/>
<stop offset="1" stop-color="#443247"/>
</radialGradient>
</defs>
</svg>
