<svg width="212" height="70" viewBox="0 0 212 70" fill="none" xmlns="http://www.w3.org/2000/svg">
<mask id="mask0_7_650" style="mask-type:luminance" maskUnits="userSpaceOnUse" x="68" y="0" width="77" height="70">
<path d="M77.2627 0C77.2627 0 68 0 68 9.29513V60.7049C68 60.7049 68 70 77.2627 70H135.471C135.471 70 144.734 70 144.734 60.7049V9.29513C144.734 9.29513 144.734 0 135.471 0H77.2627Z" fill="white"/>
</mask>
<g mask="url(#mask0_7_650)">
<path d="M144.734 0H68V70H144.734V0Z" fill="url(#paint0_linear_7_650)"/>
<path d="M77.2629 0.000434756V1.46474H77.1994C76.8188 1.46474 74.7251 1.6239 72.917 2.67438C71.9971 3.1837 71.1723 3.91585 70.5379 4.9345C69.9035 5.95314 69.4594 7.35378 69.4594 9.29557V60.769C69.4594 61.151 69.618 63.2519 70.6648 65.0664C71.1723 65.9895 71.9019 66.8172 72.917 67.4538C73.9321 68.0905 75.3279 68.5361 77.2629 68.5361H135.535C135.916 68.5361 138.009 68.377 139.818 67.3265C140.737 66.8172 141.562 66.085 142.197 65.0664C142.831 64.0477 143.275 62.6471 143.275 60.7053V9.2319C143.275 8.84991 143.117 6.74896 142.07 4.9345C141.562 4.01135 140.833 3.1837 139.818 2.54705C138.802 1.91039 137.407 1.46474 135.472 1.46474H77.2629V-1.46387H135.472C138.041 -1.46387 140.071 -0.795382 141.626 0.223263C143.973 1.78306 145.083 4.10685 145.623 5.92131C146.162 7.7676 146.162 9.20007 146.162 9.29557V60.7053C146.162 63.2837 145.496 65.321 144.481 66.8808C142.926 69.2364 140.611 70.3506 138.802 70.8917C136.963 71.4329 135.535 71.4329 135.44 71.4329H77.2629C74.6934 71.4329 72.6633 70.7644 71.1089 69.7458C68.7615 68.186 67.6513 65.8622 67.112 64.0477C66.541 62.2333 66.541 60.8008 66.541 60.7053V9.29557C66.541 6.71712 67.2072 4.67983 68.2223 3.12003C69.8083 0.764418 72.0923 -0.349724 73.9004 -0.922712C75.7402 -1.46387 77.1677 -1.46387 77.2629 -1.46387V0.000434756Z" fill="white"/>
<mask id="mask1_7_650" style="mask-type:luminance" maskUnits="userSpaceOnUse" x="79" y="16" width="53" height="42">
<path d="M131.949 16.2346H79.8945V57.1077H131.949V16.2346Z" fill="white"/>
</mask>
<g mask="url(#mask1_7_650)">
<path d="M85.6045 54.3386C85.6045 55.8665 84.3674 57.0762 82.8765 57.0762C81.3856 57.0762 80.1484 55.8665 80.1484 54.3386C80.1484 52.8106 81.3856 51.601 82.8765 51.601C84.3674 51.601 85.6045 52.8106 85.6045 54.3386Z" fill="white"/>
<path d="M97.4991 54.3387C97.4991 55.8667 96.2619 57.0763 94.771 57.0763C93.2801 57.0763 92.043 55.8667 92.043 54.3387C92.043 52.8107 93.2801 51.6011 94.771 51.6011C96.2619 51.6011 97.4991 52.8107 97.4991 54.3387Z" fill="white"/>
<path d="M109.396 54.3387C109.396 55.8667 108.158 57.0763 106.667 57.0763C105.177 57.0763 103.939 55.8667 103.939 54.3387C103.939 52.8107 105.177 51.6011 106.667 51.6011C108.158 51.6011 109.396 52.8107 109.396 54.3387Z" fill="white"/>
</g>
<path d="M80.4023 36.8303V48.0672H88.9671V45.9981H82.8766V43.2287H88.3327V41.3187H82.8766V38.8994H88.8402V36.8303H80.4023Z" fill="white"/>
<path d="M93.3768 42.1782L89.7606 36.8303H92.6155L94.836 40.4274L97.1199 36.8303H99.8163L96.2 42.1782L100.133 48.0672H97.1834L94.7408 44.1837L92.2348 48.0672H89.4434L93.3768 42.1782Z" fill="white"/>
<path d="M103.622 38.8994H100.26V36.8303H109.459V38.8994H106.097V48.0672H103.622V38.8994Z" fill="white"/>
<mask id="mask2_7_650" style="mask-type:luminance" maskUnits="userSpaceOnUse" x="79" y="16" width="53" height="42">
<path d="M131.949 16.2346H79.8945V57.1077H131.949V16.2346Z" fill="white"/>
</mask>
<g mask="url(#mask2_7_650)">
<path d="M113.234 41.9234H115.93C117.041 41.9234 117.643 41.4459 117.643 40.3318C117.643 39.2176 117.072 38.772 115.93 38.772H113.234V41.9234ZM110.76 36.8302H116.819C118.849 36.8302 120.118 38.2308 120.118 39.918C120.118 41.2549 119.61 42.2418 118.341 42.7511C119.547 43.1012 119.896 44.2472 119.991 45.425C120.022 46.1253 119.991 47.4623 120.467 48.099H117.992C117.707 47.3986 117.738 46.3163 117.612 45.3932C117.453 44.2154 116.977 43.7061 115.74 43.7061H113.266V48.099H110.791V36.862L110.76 36.8302Z" fill="white"/>
</g>
<path d="M126.43 39.5998L127.857 43.7062H124.939L126.398 39.5998H126.43ZM125.193 36.8303L120.91 48.0672H123.416L124.304 45.5525H128.523L129.38 48.0672H131.949L127.73 36.8303H125.193Z" fill="white"/>
<mask id="mask3_7_650" style="mask-type:luminance" maskUnits="userSpaceOnUse" x="79" y="16" width="53" height="42">
<path d="M131.949 16.2346H79.8945V57.1077H131.949V16.2346Z" fill="white"/>
</mask>
<g mask="url(#mask3_7_650)">
<path d="M83.48 27.8854C83.48 30.1137 85.2247 31.005 87.2231 31.005C88.5237 31.005 90.5222 30.623 90.5222 28.904C90.5222 27.0577 87.9844 26.8031 85.5102 26.1027C83.0042 25.4979 80.4665 24.4156 80.4665 21.3278C80.4665 17.8581 83.7338 16.2346 86.779 16.2346C90.3001 16.2346 93.5357 17.7626 93.5357 21.678H89.9512C89.8243 19.6725 88.4285 19.1314 86.6204 19.1314C85.4467 19.1314 84.0827 19.6407 84.0827 21.0413C84.0827 22.3465 84.8757 22.5375 89.1264 23.588C90.3635 23.8745 94.1384 24.7021 94.1384 28.4902C94.1384 31.578 91.7276 33.9017 87.128 33.9017C83.3848 33.9017 79.8638 32.0554 79.9589 27.9172H83.5434L83.48 27.8854Z" fill="white"/>
</g>
<path d="M100.006 16.6165H96.2949V33.4559H100.006V16.6165Z" fill="white"/>
<path d="M103.273 16.6165V33.4559H115.201V30.3682H106.985V16.6165H103.273Z" fill="white"/>
<mask id="mask4_7_650" style="mask-type:luminance" maskUnits="userSpaceOnUse" x="79" y="16" width="53" height="42">
<path d="M131.949 16.2346H79.8945V57.1077H131.949V16.2346Z" fill="white"/>
</mask>
<g mask="url(#mask4_7_650)">
<path d="M123.416 30.7504C126.747 30.7504 128.016 27.9173 128.016 25.116C128.016 22.1556 126.779 19.3225 123.416 19.3225C120.054 19.3225 118.817 22.1556 118.817 25.116C118.817 28.0765 120.054 30.7504 123.416 30.7504ZM123.416 16.2029C128.619 16.2029 131.727 20.0865 131.727 25.116C131.727 30.1456 128.619 33.87 123.416 33.87C118.214 33.87 115.105 29.9864 115.105 25.116C115.105 20.2456 118.214 16.2029 123.416 16.2029Z" fill="white"/>
</g>
</g>
<defs>
<linearGradient id="paint0_linear_7_650" x1="107.368" y1="-4.14047" x2="107.368" y2="63.1219" gradientUnits="userSpaceOnUse">
<stop stop-color="#009DDB"/>
<stop offset="1" stop-color="#00527F"/>
</linearGradient>
</defs>
</svg>
