<svg width="212" height="70" viewBox="0 0 212 70" fill="none" xmlns="http://www.w3.org/2000/svg">
<path d="M40.5539 20.0383H37.7593C36.4149 20.0383 35.7715 20.6901 35.7715 22.0224V48.0064C35.7715 49.3386 36.4245 49.9904 37.7593 49.9904H40.5539C41.8887 49.9904 42.5417 49.3386 42.5417 48.0064V22.0319C42.5417 20.6997 41.8887 20.0479 40.5539 20.0479" fill="#F5A81C"/>
<path d="M65.4171 44.3068H55.0552V37.7605H62.4497C63.7845 37.7605 64.4376 37.1087 64.4376 35.7765V34.0608C64.4376 32.7285 63.7845 32.0768 62.4497 32.0768H55.0552V25.7413H64.8121C66.1565 25.7413 66.7999 25.0896 66.7999 23.7573V22.0416C66.7999 20.6998 66.1469 20.0576 64.8121 20.0576H50.2633C48.9188 20.0576 48.2754 20.7094 48.2754 22.0416V48.0257C48.2754 49.3675 48.9284 50.0097 50.2633 50.0097H65.4075C66.7423 50.0097 67.3953 49.3579 67.3953 48.0257V46.31C67.3953 44.9777 66.7423 44.326 65.4075 44.326" fill="#F5A81C"/>
<path d="M146.333 20.0383H143.539C142.204 20.0383 141.551 20.6901 141.551 22.0224V48.0064C141.551 49.3386 142.204 49.9904 143.539 49.9904H146.333C147.668 49.9904 148.321 49.3386 148.321 48.0064V22.0319C148.321 20.6997 147.668 20.0479 146.333 20.0479" fill="#F5A81C"/>
<path d="M171.081 44.3068H160.719V37.7605H168.114C169.458 37.7605 170.102 37.1087 170.102 35.7765V34.0608C170.102 32.7285 169.449 32.0768 168.114 32.0768H160.719V25.7413H170.476C171.821 25.7413 172.464 25.0896 172.464 23.7573V22.0416C172.464 20.6998 171.811 20.0576 170.476 20.0576H155.927C154.583 20.0576 153.939 20.7094 153.939 22.0416V48.0257C153.939 49.3675 154.592 50.0097 155.927 50.0097H171.072C172.406 50.0097 173.059 49.3579 173.059 48.0257V46.31C173.059 44.9777 172.406 44.326 171.072 44.326" fill="#F5A81C"/>
<path d="M137.633 22.1183C137.739 21.687 137.796 21.0831 137.479 20.6902C137.172 20.2972 136.577 20.2109 136.125 20.2109H133.081C131.929 20.2109 131.304 20.7189 131.064 21.8595L125.158 41.5081L118.705 21.8883C118.455 20.7189 117.831 20.2109 116.688 20.2109H113.644C113.202 20.2109 112.607 20.2972 112.29 20.6902C111.973 21.0831 112.031 21.687 112.136 22.1279L119.963 48.0352C120.242 49.1566 120.875 49.655 122.018 49.655H127.732C128.875 49.655 129.509 49.1566 129.797 48.0352L137.623 22.1279L137.633 22.1183Z" fill="#F5A81C"/>
<path d="M110.063 34.9617C110.063 25.6166 104.272 20.0383 94.5631 20.0383H87.524C86.1891 20.0383 85.5361 20.6901 85.5361 22.0224V39.131C85.5361 39.5623 85.8818 39.9073 86.314 39.9073H91.5189C91.951 39.9073 92.2968 39.5623 92.2968 39.131L92.316 25.7316H94.2654C99.7584 25.7316 103.033 29.1821 103.033 34.9521C103.033 40.722 99.8353 44.3067 94.2654 44.3067H78.3913V22.0319C78.3913 20.6997 77.7383 20.0479 76.4035 20.0479H73.609C72.2741 20.0479 71.6211 20.6997 71.6211 22.0319V48.016C71.6211 49.3578 72.2741 50 73.609 50H94.5727C104.137 50 110.072 44.2396 110.072 34.9521" fill="#F5A81C"/>
<path d="M30.1338 20H11.9646C11.6669 20 11.4268 20.2396 11.4268 20.5367V22.1661C11.4268 22.4633 11.6669 22.7029 11.9646 22.7029H17.5056C17.8033 22.7029 18.0434 22.9425 18.0434 23.2396V24.869C18.0434 25.1661 17.8033 25.4153 17.5056 25.4153H12.9153C12.6176 25.4153 12.3775 25.6645 12.3775 25.9617V27.5911C12.3775 27.8882 12.6176 28.1278 12.9153 28.1278H14.8456C15.1433 28.1278 15.3929 28.3674 15.3929 28.6645V30.2939C15.3929 30.5911 15.1529 30.8498 14.8456 30.8498H10.4569C10.1592 30.8498 9.91912 31.0895 9.91912 31.3866V33.016C9.91912 33.3131 10.1592 33.5527 10.4569 33.5527H16.6606C16.9583 33.5527 17.1983 33.7923 17.1983 34.0895V35.7189C17.1983 36.016 16.9583 36.2652 16.6606 36.2652H12.4352C12.1375 36.2652 11.8974 36.5048 11.8974 36.8019V38.4313C11.8974 38.7284 12.1375 38.9681 12.4352 38.9681H15.3257C15.6234 38.9681 15.8635 39.2077 15.8635 39.5144V41.1438C15.8635 41.4409 15.6234 41.6901 15.3257 41.6901H10.1784C9.88071 41.6901 9.64062 41.9297 9.64062 42.2364V43.8658C9.64062 44.1629 9.88071 44.4026 10.1784 44.4026H15.9787C16.2764 44.4026 16.5165 44.6422 16.5165 44.9393V46.5687C16.5165 46.8658 16.2764 47.1246 15.9787 47.1246H10.9275C10.6298 47.1246 10.3801 47.3642 10.3801 47.6613V49.4058C10.3801 49.7029 10.6202 49.9425 10.9275 49.9425H19.4263C20.7707 49.9425 21.0684 48.6198 21.0684 47.6997V37.5591H28.2996C29.7689 37.5591 30.5468 36.7827 30.5468 35.3163V34.4153C30.5468 32.9489 29.7689 32.1725 28.2996 32.1725H21.0684V25.7029H30.1338C31.6031 25.7029 32.381 24.9265 32.381 23.4601V22.1949C32.381 20.8051 31.6031 20 30.1338 20Z" fill="#F5A81C"/>
<path d="M9.95919 28.1661C9.87276 28.1661 9.79593 28.0894 9.79593 27.9936V27.0926H8.97966C8.88363 27.0926 8.81641 27.0159 8.81641 26.9201V26.6613C8.81641 26.5654 8.89323 26.4888 8.97966 26.4888H9.79593V25.5878C9.79593 25.492 9.87276 25.4153 9.95919 25.4153H10.2761C10.3721 25.4153 10.4489 25.492 10.4489 25.5878V26.4888H11.2556C11.3516 26.4888 11.4285 26.5654 11.4285 26.6613V26.9201C11.4285 27.0159 11.3516 27.0926 11.2556 27.0926H10.4489V27.9936C10.4489 28.0894 10.3721 28.1661 10.2761 28.1661H9.95919Z" fill="#F5A81C"/>
<path d="M4.09981 39.0352C4.01338 39.0352 3.93656 38.9585 3.93656 38.8627V37.9617H3.12029C3.02425 37.9617 2.95703 37.8851 2.95703 37.7892V37.5304C2.95703 37.4346 3.03386 37.3579 3.12029 37.3579H3.93656V36.4569C3.93656 36.3611 4.01338 36.2844 4.09981 36.2844H4.41672C4.51275 36.2844 4.58957 36.3611 4.58957 36.4569V37.3579H5.39624C5.49227 37.3579 5.5691 37.4346 5.5691 37.5304V37.7892C5.5691 37.8851 5.49227 37.9617 5.39624 37.9617H4.58957V38.8627C4.58957 38.9585 4.51275 39.0352 4.41672 39.0352H4.09981Z" fill="#F5A81C"/>
<path d="M3.5142 30.9841H2.39062L3.13967 32.2781L2.39062 33.572H3.5142L4.26325 32.2781L3.5142 30.9841Z" fill="#F5A81C"/>
<path d="M7.72123 41.8052H6.59766L7.34671 43.0991L6.59766 44.393H7.72123L8.47028 43.0991L7.72123 41.8052Z" fill="#F5A81C"/>
<path d="M7.3659 22.7125H9.58424C9.88194 22.7125 10.122 22.4728 10.122 22.1757V20.5367C10.122 20.2396 9.88194 20 9.58424 20H7.3659C7.0682 20 6.82812 20.2396 6.82812 20.5367V22.1661C6.82812 22.4633 7.0682 22.7029 7.3659 22.7029" fill="#F5A81C"/>
<path d="M5.27215 28.147H7.49049C7.78819 28.147 8.02827 27.9074 8.02827 27.6102V25.9808C8.02827 25.6837 7.78819 25.4441 7.49049 25.4441H5.27215C4.97445 25.4441 4.73438 25.6837 4.73438 25.9808V27.6102C4.73438 27.9074 4.97445 28.147 5.27215 28.147Z" fill="#F5A81C"/>
<path d="M5.82879 33.6389H8.04713C8.34483 33.6389 8.58491 33.3993 8.58491 33.1022V31.4728C8.58491 31.1757 8.34483 30.936 8.04713 30.936H5.82879C5.5311 30.936 5.29102 31.1757 5.29102 31.4728V33.1022C5.29102 33.3993 5.5311 33.6389 5.82879 33.6389Z" fill="#F5A81C"/>
<path d="M7.71161 39.0256H9.92994C10.2276 39.0256 10.4677 38.786 10.4677 38.4889V36.8595C10.4677 36.5624 10.2276 36.3228 9.92994 36.3228H7.71161C7.41391 36.3228 7.17383 36.5624 7.17383 36.8595V38.4889C7.17383 38.786 7.41391 39.0256 7.71161 39.0256Z" fill="#F5A81C"/>
<path d="M5.56122 50H8.37495C8.67265 50 8.91273 49.7604 8.91273 49.4633V47.7189C8.91273 47.4217 8.67265 47.1821 8.37495 47.1821H5.56122C5.26352 47.1821 5.02344 47.4217 5.02344 47.7189V49.4633C5.02344 49.7604 5.26352 50 5.56122 50Z" fill="#F5A81C"/>
<path d="M1.81512 50H3.28441C3.58211 50 3.82219 49.7604 3.82219 49.4633V47.7189C3.82219 47.4217 3.58211 47.1821 3.28441 47.1821H1.81512C1.51742 47.1821 1.27734 47.4217 1.27734 47.7189V49.4633C1.27734 49.7604 1.51742 50 1.81512 50Z" fill="#F5A81C"/>
<path d="M3.46747 44.46H4.74469C5.04239 44.46 5.28247 44.2203 5.28247 43.9232V42.2938C5.28247 41.9967 5.04239 41.7571 4.74469 41.7571H3.46747C3.16977 41.7571 2.92969 41.9967 2.92969 42.2938V43.9232C2.92969 44.2203 3.16977 44.46 3.46747 44.46Z" fill="#F5A81C"/>
<path d="M1.29559 28.147H2.78409C3.08178 28.147 3.32186 27.9074 3.32186 27.6102V25.9808C3.32186 25.6837 3.08178 25.4441 2.78409 25.4441H1.29559C0.997892 25.4441 0.757812 25.6837 0.757812 25.9808V27.6102C0.757812 27.9074 0.997892 28.147 1.29559 28.147Z" fill="#F5A81C"/>
<path d="M0.537779 22.7125H5.01286C5.31056 22.7125 5.55064 22.4728 5.55064 22.1757V20.5367C5.55064 20.2396 5.31056 20 5.01286 20H0.537779C0.24008 20 0 20.2396 0 20.5367V22.1661C0 22.4633 0.24008 22.7029 0.537779 22.7029" fill="#F5A81C"/>
<path d="M205.335 41.3929C204.086 41.3929 203.078 40.904 202.348 40.2619L201.494 43.0702L195.837 22.0414C195.578 20.805 194.877 20.2395 193.648 20.2395H190.632C189.941 20.2395 189.422 20.4312 189.144 20.7858C188.865 21.1405 188.798 21.6868 188.961 22.3673L191.113 31.2139L187.703 42.936L182.086 22.051C181.826 20.8146 181.125 20.2491 179.896 20.2491H176.881C176.189 20.2491 175.671 20.4408 175.392 20.7954C175.104 21.15 175.046 21.6964 175.2 22.3769L181.452 48.0925C181.749 49.281 182.46 49.8369 183.68 49.8369H187.521C187.607 49.8369 187.684 49.8369 187.761 49.8178C187.819 49.8178 187.867 49.8274 187.924 49.8274C188.645 49.8274 189.317 49.3577 189.528 48.6293L192.707 37.7219L192.774 37.9999L195.223 48.0925C195.52 49.281 196.231 49.8369 197.451 49.8369H201.292C201.388 49.8369 201.474 49.8369 201.561 49.8178C201.609 49.8178 201.657 49.8274 201.705 49.8274C202.416 49.8274 203.078 49.3673 203.299 48.6484L205.517 41.3833C205.469 41.3833 205.412 41.3833 205.364 41.3833" fill="#F5A81C"/>
<path d="M211.596 20.6517C211.577 20.5175 211.49 20.3929 211.365 20.3258C211.241 20.2587 211.087 20.2491 210.953 20.297C210.751 20.3737 206.113 22.214 204.47 26.4025C203.472 28.952 203.769 31.0702 205.459 34.1565C205.459 34.1661 206.18 35.575 205.911 36.4951C205.594 37.4344 204.912 37.4823 204.269 37.5207C203.587 37.559 203.02 37.2427 203.011 37.2427C202.838 37.1373 202.607 37.1565 202.444 37.2907C202.29 37.4248 202.242 37.6357 202.319 37.8082C202.348 37.8753 203.107 39.428 204.874 39.313C205.584 39.2747 206.353 38.9488 207.159 38.3546C207.419 38.1437 213.574 33.7156 211.577 20.6421" fill="#40AE49"/>
</svg>
