<svg width="212" height="70" viewBox="0 0 212 70" fill="none" xmlns="http://www.w3.org/2000/svg">
<mask id="mask0_7_649" style="mask-type:luminance" maskUnits="userSpaceOnUse" x="72" y="6" width="68" height="59">
<path d="M139.072 6.41675H72.6445V64.5476H139.072V6.41675Z" fill="white"/>
</mask>
<g mask="url(#mask0_7_649)">
<path d="M113.608 57.241C111.43 58.7776 108.884 60.3142 105.875 61.8821C102.871 60.3102 100.324 58.7776 98.1425 57.241H94.0605C97.0025 59.687 100.693 62.0428 105.311 64.4104C105.664 64.5907 106.083 64.5907 106.44 64.4104C111.058 62.0389 114.745 59.687 117.69 57.241H113.608Z" fill="#FFCB05"/>
</g>
<path d="M73.6406 19.897V36.8266H77.3622V29.8337H84.4449V26.9409H77.3622V23.0289H85.5378V19.897H73.6406Z" fill="white"/>
<path d="M91.413 19.897H87.6914V36.8266H91.413V19.897Z" fill="white"/>
<path d="M94.6797 19.897H107.333V23.025H98.3973V26.6547H106.596V29.5475H98.3973V33.6986H107.521V36.8266H94.6797V19.897Z" fill="white"/>
<path d="M110.033 19.897H113.755V33.6986H122.001V36.8266H110.033V19.897Z" fill="white"/>
<mask id="mask1_7_649" style="mask-type:luminance" maskUnits="userSpaceOnUse" x="72" y="6" width="68" height="59">
<path d="M139.072 6.41675H72.6445V64.5476H139.072V6.41675Z" fill="white"/>
</mask>
<g mask="url(#mask1_7_649)">
<path d="M127.804 33.6986H131.122C133.276 33.6986 135.341 32.3698 135.341 28.6264C135.341 25.2122 134.13 23.0289 130.46 23.0289H127.804V33.6986ZM124.086 19.897H131.384C135.768 19.897 139.062 22.6722 139.062 28.2658C139.062 33.1734 136.551 36.8266 131.384 36.8266H124.086V19.897Z" fill="white"/>
<path d="M75.4502 49.2446C75.4502 50.9968 76.8135 51.6788 78.3648 51.6788C79.3794 51.6788 80.9268 51.3848 80.9268 50.0364C80.9268 48.5978 78.9328 48.394 77.0172 47.8609C75.0624 47.3788 73.0919 46.5517 73.0919 44.1136C73.0919 41.4011 75.6382 40.1271 78.0161 40.1271C80.7622 40.1271 83.289 41.3266 83.289 44.3723H80.4841C80.394 42.8044 79.2854 42.381 77.8829 42.381C76.9623 42.381 75.8929 42.7691 75.8929 43.8745C75.8929 44.8897 76.5197 45.0387 79.8181 45.8657C80.7975 46.0892 83.7277 46.732 83.7277 49.7032C83.7277 52.1218 81.8474 53.9288 78.2512 53.9288C75.3366 53.9288 72.5905 52.4902 72.6453 49.2407H75.4502V49.2446Z" fill="#FFCB05"/>
</g>
<path d="M93.666 40.4446V45.5011H88.3383V40.4446H85.4395V53.6191H88.3383V47.9353H93.666V53.6191H96.561V40.4446H93.666Z" fill="#FFCB05"/>
<path d="M101.998 40.4446H99.1035V53.6191H101.998V40.4446Z" fill="#FFCB05"/>
<path d="M104.539 40.4446V53.6191H114.532V51.1849H107.434V47.9549H113.816V45.705H107.434V42.8827H114.387V40.4446H104.539Z" fill="#FFCB05"/>
<path d="M116.488 40.4446V53.6191H125.8V51.1849H119.383V40.4446H116.488Z" fill="#FFCB05"/>
<mask id="mask2_7_649" style="mask-type:luminance" maskUnits="userSpaceOnUse" x="72" y="6" width="68" height="59">
<path d="M139.072 6.41675H72.6445V64.5476H139.072V6.41675Z" fill="white"/>
</mask>
<g mask="url(#mask2_7_649)">
<path d="M130.313 51.1849H132.895C134.571 51.1849 136.177 50.154 136.177 47.2377C136.177 44.58 135.237 42.8828 132.377 42.8828H130.313V51.1849ZM127.418 40.4446H133.098C136.51 40.4446 139.072 42.6045 139.072 46.9594C139.072 50.7773 137.117 53.6191 133.098 53.6191H127.418V40.4446Z" fill="#FFCB05"/>
<path d="M128.746 13.8369C128.746 13.1549 128.193 12.6022 127.508 12.5983C121.636 12.5983 118.165 12.5787 115.376 11.8653C112.59 11.1519 110.322 9.74858 106.667 6.70288C106.444 6.51473 106.162 6.41282 105.868 6.41673C105.582 6.41673 105.304 6.51865 105.081 6.70288C101.426 9.7525 99.1574 11.1519 96.3721 11.8653C93.5868 12.5787 90.1121 12.5983 84.2399 12.5983C83.5582 12.5983 83.0059 13.151 83.002 13.8369C83.002 14.8012 83.002 15.742 82.9941 16.667H85.4739C85.4739 16.1339 85.4778 15.6048 85.4778 15.056C90.5195 15.056 94.0138 15.0207 96.9832 14.2603C99.9683 13.4959 102.554 11.8653 105.872 9.18412C109.19 11.8692 111.775 13.4959 114.757 14.2603C117.722 15.0207 121.216 15.0521 126.262 15.056C126.262 15.6009 126.262 16.1339 126.266 16.667H128.746C128.742 15.742 128.738 14.8012 128.738 13.8369" fill="#FFCB05"/>
</g>
</svg>
