<svg width="212" height="70" viewBox="0 0 212 70" fill="none" xmlns="http://www.w3.org/2000/svg">
<g clip-path="url(#clip0_7_648)">
<path d="M39.5651 34.3006C39.8642 29.4413 44.3237 27.9308 48.6697 27.9308C52.5275 27.9308 57.1761 28.779 57.1761 33.3443V43.2488C57.1761 44.979 57.3618 46.7091 57.8501 47.483H52.4553C52.2697 46.895 52.1184 46.2665 52.0806 45.6413C50.3958 47.3715 47.958 47.9966 45.5615 47.9966C41.8515 47.9966 38.9668 46.1921 38.9668 42.2891C39.0424 33.6349 52.0806 38.2746 51.8571 34.0033C51.8571 31.7932 50.2823 31.4249 48.4084 31.4249C46.3489 31.4249 45.0733 32.2359 44.8876 34.2972H39.5685L39.5651 34.3006ZM51.8536 38.1698C50.9528 38.9437 49.0823 38.9808 47.4319 39.2748C45.785 39.5688 44.2859 40.1602 44.2859 42.0728C44.2859 43.9855 45.8228 44.5025 47.5454 44.5025C51.7058 44.5025 51.8536 41.299 51.8536 40.1196V38.1665V38.1698Z" fill="#287032"/>
<path d="M73.629 35.1488C73.292 32.976 71.982 31.871 69.6956 31.871C66.2847 31.871 65.1604 35.2603 65.1604 38.0583C65.1604 40.8563 66.2469 44.0598 69.5821 44.0598C72.0921 44.0598 73.4777 42.5493 73.8147 40.194H78.9481C78.2363 45.2392 74.7499 48 69.6165 48C63.7713 48 59.8379 43.9483 59.8379 38.2408C59.8379 32.5333 63.4344 27.9308 69.7299 27.9308C74.2995 27.9308 78.5355 30.2861 78.8346 35.1488H73.6256H73.629Z" fill="#287032"/>
<path d="M94.4688 35.1488C94.1319 32.976 92.8219 31.871 90.5354 31.871C87.1246 31.871 86.0003 35.2603 86.0003 38.0583C86.0003 40.8563 87.0868 44.0598 90.4219 44.0598C92.9319 44.0598 94.3176 42.5493 94.6545 40.194H99.7879C99.0762 45.2392 95.5897 48 90.4563 48C84.6112 48 80.6777 43.9483 80.6777 38.2408C80.6777 32.5333 84.2742 27.9308 90.5698 27.9308C95.1393 27.9308 99.3753 30.2861 99.6745 35.1488H94.4654H94.4688Z" fill="#287032"/>
<path d="M107.032 39.2377C107.183 42.5899 108.792 44.0632 111.791 44.0632C113.926 44.0632 115.648 42.7758 115.989 41.5964H120.672C119.173 46.1246 115.989 48.0034 111.605 48.0034C105.498 48.0034 101.713 43.8774 101.713 37.9874C101.713 32.0974 105.722 27.9342 111.605 27.9342C118.2 27.9342 121.421 33.3849 121.009 39.2411H107.032V39.2377ZM115.69 35.9227C115.201 33.27 114.039 31.871 111.457 31.871C108.008 31.871 107.149 34.4493 107.035 35.9227H115.69Z" fill="#287032"/>
<path d="M123.332 21.1926H128.651V47.4864H123.332V21.1926Z" fill="#287032"/>
<path d="M136.372 39.2377C136.523 42.5899 138.132 44.0632 141.13 44.0632C143.266 44.0632 144.988 42.7758 145.329 41.5964H150.012C148.513 46.1246 145.329 48.0034 140.945 48.0034C134.838 48.0034 131.053 43.8774 131.053 37.9874C131.053 32.0974 135.062 27.9342 140.945 27.9342C147.539 27.9342 150.761 33.3849 150.349 39.2411H136.372V39.2377ZM145.026 35.9227C144.538 33.27 143.379 31.871 140.794 31.871C137.345 31.871 136.485 34.4493 136.372 35.9227H145.026Z" fill="#287032"/>
<path d="M152.967 28.4478H158.025V31.9825H158.1C159.111 29.59 161.621 27.9308 164.282 27.9308C164.695 27.9308 165.07 28.0051 165.444 28.1133V32.976C164.956 32.8645 164.169 32.7901 163.533 32.7901C159.599 32.7901 158.286 35.5138 158.286 38.9031V47.483H152.967V28.4478Z" fill="#287032"/>
<path d="M176.363 27.9308C182.469 27.9308 186.406 31.9081 186.406 37.984C186.406 44.0598 182.473 48 176.363 48C170.253 48 166.357 44.0227 166.357 37.984C166.357 31.9453 170.291 27.9308 176.363 27.9308ZM176.363 44.0598C179.997 44.0598 181.084 41.0388 181.084 37.984C181.084 34.9292 179.997 31.871 176.363 31.871C172.729 31.871 171.68 34.9292 171.68 37.984C171.68 41.0388 172.766 44.0598 176.363 44.0598Z" fill="#287032"/>
<path d="M188.908 28.4478H193.966V31.1005H194.079C195.427 28.9277 197.751 27.9342 200 27.9342C205.659 27.9342 207.083 31.0634 207.083 35.7774V47.4864H201.76V36.7337C201.76 33.6045 200.863 32.0569 198.349 32.0569C195.465 32.0569 194.227 33.6417 194.227 37.5075V47.4864H188.904V28.4478H188.908Z" fill="#287032"/>
<path d="M208.989 21C210.58 21 212.001 22.1253 212.001 23.8757C212.001 25.6262 210.58 26.7683 208.989 26.7683C207.397 26.7683 205.977 25.6329 205.977 23.8757C205.977 22.1185 207.397 21 208.989 21ZM208.989 26.1533C210.206 26.1533 211.203 25.197 211.203 23.8791C211.203 22.5612 210.206 21.6184 208.989 21.6184C207.771 21.6184 206.774 22.568 206.774 23.8791C206.774 25.1902 207.754 26.1533 208.989 26.1533ZM207.816 22.2571H209.057C209.883 22.2571 210.343 22.5105 210.343 23.2134C210.343 23.8081 209.958 24.0379 209.48 24.0785L210.36 25.491H209.676L208.875 24.1089H208.466V25.491H207.816V22.2571ZM208.469 23.6054H209.05C209.429 23.6054 209.693 23.5513 209.693 23.1593C209.693 22.8214 209.315 22.7572 209.019 22.7572H208.469V23.6054Z" fill="#287032"/>
<path d="M5.14453 29.6508V24.4873H10.6149C12.3581 24.4873 13.7713 25.8762 13.7713 27.5894V32.7529H8.30091C6.55768 32.7529 5.14453 31.364 5.14453 29.6508Z" fill="#A6CE39"/>
<path d="M35.2676 40.3392V28.4443H22.6627C18.6467 28.4443 15.3906 31.6445 15.3906 35.5914V47.4863H27.9955C32.0115 47.4863 35.2676 44.2861 35.2676 40.3392Z" fill="#7AC143"/>
<path d="M0 42.5323V34.2904H8.73333C11.5149 34.2904 13.7705 36.5072 13.7705 39.241V47.4829H5.03714C2.25554 47.4829 0 45.2661 0 42.5323Z" fill="#287032"/>
</g>
<defs>
<clipPath id="clip0_7_648">
<rect width="212" height="70" fill="white"/>
</clipPath>
</defs>
</svg>
